G04 (created by PCBNEW (2013-june-11)-stable) date Wed 22 Oct 2014 09:51:14 PM EDT*
%MOIN*%
G04 Gerber Fmt 3.4, Leading zero omitted, Abs format*
%FSLAX34Y34*%
G01*
G70*
G90*
G04 APERTURE LIST*
%ADD10C,0.00590551*%
%ADD11R,0.07X0.07*%
%ADD12C,0.07*%
%ADD13C,0.06*%
%ADD14R,0.055X0.055*%
%ADD15C,0.055*%
%ADD16C,0.16*%
%ADD17R,0.06X0.06*%
%ADD18C,0.01*%
G04 APERTURE END LIST*
G54D10*
G54D11*
X21800Y-14500D03*
G54D12*
X20800Y-14500D03*
X19800Y-14500D03*
X20800Y-12500D03*
X21800Y-12500D03*
G54D11*
X19800Y-12500D03*
X18800Y-16300D03*
G54D12*
X19800Y-16300D03*
X20800Y-16300D03*
X21800Y-16300D03*
X25200Y-11600D03*
G54D11*
X25200Y-13600D03*
G54D12*
X25200Y-9600D03*
G54D13*
X25200Y-12600D03*
X25200Y-10600D03*
G54D11*
X14400Y-16300D03*
G54D12*
X12400Y-16300D03*
X13400Y-16300D03*
G54D14*
X15300Y-9800D03*
G54D15*
X14300Y-9800D03*
X13300Y-9800D03*
X12300Y-9800D03*
X12300Y-12800D03*
X13300Y-12800D03*
X14300Y-12800D03*
X15300Y-12800D03*
G54D14*
X23600Y-9900D03*
G54D15*
X20600Y-9900D03*
G54D14*
X20600Y-11000D03*
G54D15*
X23600Y-11000D03*
X10900Y-13800D03*
X10900Y-12800D03*
X19400Y-9900D03*
X19400Y-10900D03*
X12300Y-14400D03*
X15300Y-14400D03*
G54D14*
X17300Y-16300D03*
G54D15*
X17300Y-13300D03*
X9200Y-11400D03*
X10200Y-11400D03*
G54D16*
X9700Y-9700D03*
G54D17*
X9200Y-12800D03*
G54D13*
X9200Y-13800D03*
G54D16*
X25600Y-15700D03*
X9700Y-15700D03*
G54D17*
X17400Y-11800D03*
G54D13*
X17400Y-10800D03*
G54D15*
X16200Y-15300D03*
X16200Y-16300D03*
G54D11*
X21800Y-24283D03*
G54D12*
X20800Y-24283D03*
X19800Y-24283D03*
X20800Y-22283D03*
X21800Y-22283D03*
G54D11*
X19800Y-22283D03*
X18800Y-26083D03*
G54D12*
X19800Y-26083D03*
X20800Y-26083D03*
X21800Y-26083D03*
X25200Y-21383D03*
G54D11*
X25200Y-23383D03*
G54D12*
X25200Y-19383D03*
G54D13*
X25200Y-22383D03*
X25200Y-20383D03*
G54D11*
X14400Y-26083D03*
G54D12*
X12400Y-26083D03*
X13400Y-26083D03*
G54D14*
X15300Y-19583D03*
G54D15*
X14300Y-19583D03*
X13300Y-19583D03*
X12300Y-19583D03*
X12300Y-22583D03*
X13300Y-22583D03*
X14300Y-22583D03*
X15300Y-22583D03*
G54D14*
X23600Y-19683D03*
G54D15*
X20600Y-19683D03*
G54D14*
X20600Y-20783D03*
G54D15*
X23600Y-20783D03*
X10900Y-23583D03*
X10900Y-22583D03*
X19400Y-19683D03*
X19400Y-20683D03*
X12300Y-24183D03*
X15300Y-24183D03*
G54D14*
X17300Y-26083D03*
G54D15*
X17300Y-23083D03*
X9200Y-21183D03*
X10200Y-21183D03*
G54D16*
X9700Y-19483D03*
G54D17*
X9200Y-22583D03*
G54D13*
X9200Y-23583D03*
G54D16*
X25600Y-25483D03*
X9700Y-25483D03*
G54D17*
X17400Y-21583D03*
G54D13*
X17400Y-20583D03*
G54D15*
X16200Y-25083D03*
X16200Y-26083D03*
G54D18*
X12300Y-14400D02*
X13100Y-14400D01*
X13100Y-14400D02*
X14300Y-13200D01*
X18200Y-14100D02*
X16300Y-14100D01*
X14300Y-13200D02*
X14300Y-12800D01*
X14700Y-13600D02*
X14300Y-13200D01*
X15800Y-13600D02*
X14700Y-13600D01*
X16300Y-14100D02*
X15800Y-13600D01*
X18800Y-13500D02*
X18900Y-13500D01*
X18800Y-13500D02*
X18200Y-14100D01*
X19900Y-13500D02*
X18900Y-13500D01*
X18900Y-13500D02*
X18800Y-13500D01*
X20800Y-12500D02*
X20800Y-12600D01*
X20800Y-12600D02*
X19900Y-13500D01*
X18600Y-14500D02*
X18200Y-14100D01*
X19800Y-14500D02*
X18600Y-14500D01*
X12300Y-24183D02*
X13100Y-24183D01*
X13100Y-24183D02*
X14300Y-22983D01*
X18200Y-23883D02*
X16300Y-23883D01*
X14300Y-22983D02*
X14300Y-22583D01*
X14700Y-23383D02*
X14300Y-22983D01*
X15800Y-23383D02*
X14700Y-23383D01*
X16300Y-23883D02*
X15800Y-23383D01*
X18800Y-23283D02*
X18900Y-23283D01*
X18800Y-23283D02*
X18200Y-23883D01*
X19900Y-23283D02*
X18900Y-23283D01*
X18900Y-23283D02*
X18800Y-23283D01*
X20800Y-22283D02*
X20800Y-22383D01*
X20800Y-22383D02*
X19900Y-23283D01*
X18600Y-24283D02*
X18200Y-23883D01*
X19800Y-24283D02*
X18600Y-24283D01*
X13300Y-12800D02*
X13300Y-12000D01*
X14300Y-11000D02*
X14300Y-9800D01*
X13300Y-12000D02*
X14300Y-11000D01*
X13300Y-22583D02*
X13300Y-21783D01*
X14300Y-20783D02*
X14300Y-19583D01*
X13300Y-21783D02*
X14300Y-20783D01*
G54D10*
G36*
X27130Y-17250D02*
X26999Y-17250D01*
X26930Y-17249D01*
X26930Y-17250D01*
X26650Y-17250D01*
X26650Y-15492D01*
X26490Y-15106D01*
X26195Y-14810D01*
X25809Y-14650D01*
X25800Y-14650D01*
X25800Y-11481D01*
X25708Y-11260D01*
X25540Y-11091D01*
X25495Y-11073D01*
X25511Y-11066D01*
X25665Y-10911D01*
X25749Y-10709D01*
X25750Y-10491D01*
X25666Y-10288D01*
X25511Y-10134D01*
X25495Y-10127D01*
X25539Y-10108D01*
X25708Y-9940D01*
X25799Y-9719D01*
X25800Y-9481D01*
X25708Y-9260D01*
X25540Y-9091D01*
X25319Y-9000D01*
X25081Y-8999D01*
X24860Y-9091D01*
X24691Y-9259D01*
X24600Y-9480D01*
X24599Y-9718D01*
X24691Y-9939D01*
X24859Y-10108D01*
X24904Y-10126D01*
X24888Y-10133D01*
X24734Y-10288D01*
X24650Y-10490D01*
X24649Y-10708D01*
X24733Y-10911D01*
X24888Y-11065D01*
X24904Y-11072D01*
X24860Y-11091D01*
X24691Y-11259D01*
X24600Y-11480D01*
X24599Y-11718D01*
X24691Y-11939D01*
X24859Y-12108D01*
X24904Y-12126D01*
X24888Y-12133D01*
X24734Y-12288D01*
X24650Y-12490D01*
X24649Y-12708D01*
X24733Y-12911D01*
X24822Y-12999D01*
X24800Y-12999D01*
X24708Y-13037D01*
X24638Y-13108D01*
X24600Y-13200D01*
X24599Y-13299D01*
X24599Y-13999D01*
X24637Y-14091D01*
X24708Y-14161D01*
X24800Y-14199D01*
X24899Y-14200D01*
X25599Y-14200D01*
X25691Y-14162D01*
X25761Y-14091D01*
X25799Y-13999D01*
X25800Y-13900D01*
X25800Y-13200D01*
X25762Y-13108D01*
X25691Y-13038D01*
X25599Y-13000D01*
X25577Y-13000D01*
X25665Y-12911D01*
X25749Y-12709D01*
X25750Y-12491D01*
X25666Y-12288D01*
X25511Y-12134D01*
X25495Y-12127D01*
X25539Y-12108D01*
X25708Y-11940D01*
X25799Y-11719D01*
X25800Y-11481D01*
X25800Y-14650D01*
X25392Y-14649D01*
X25006Y-14809D01*
X24710Y-15104D01*
X24550Y-15490D01*
X24549Y-15907D01*
X24709Y-16294D01*
X25004Y-16589D01*
X25390Y-16749D01*
X25807Y-16750D01*
X26194Y-16590D01*
X26489Y-16295D01*
X26649Y-15909D01*
X26650Y-15492D01*
X26650Y-17250D01*
X26399Y-17250D01*
X26330Y-17249D01*
X26330Y-17250D01*
X25799Y-17250D01*
X25730Y-17249D01*
X25730Y-17250D01*
X25199Y-17250D01*
X25130Y-17249D01*
X25130Y-17250D01*
X24599Y-17250D01*
X24530Y-17249D01*
X24530Y-17250D01*
X24125Y-17250D01*
X24125Y-10896D01*
X24125Y-10895D01*
X24125Y-10125D01*
X24125Y-9575D01*
X24087Y-9483D01*
X24016Y-9413D01*
X23924Y-9375D01*
X23825Y-9374D01*
X23275Y-9374D01*
X23183Y-9412D01*
X23113Y-9483D01*
X23075Y-9575D01*
X23074Y-9674D01*
X23074Y-10224D01*
X23112Y-10316D01*
X23183Y-10386D01*
X23275Y-10424D01*
X23374Y-10425D01*
X23924Y-10425D01*
X24016Y-10387D01*
X24086Y-10316D01*
X24124Y-10224D01*
X24125Y-10125D01*
X24125Y-10895D01*
X24045Y-10703D01*
X23897Y-10555D01*
X23704Y-10475D01*
X23496Y-10474D01*
X23303Y-10554D01*
X23155Y-10702D01*
X23075Y-10895D01*
X23074Y-11103D01*
X23154Y-11297D01*
X23302Y-11444D01*
X23495Y-11524D01*
X23703Y-11525D01*
X23897Y-11445D01*
X24044Y-11297D01*
X24124Y-11104D01*
X24125Y-10896D01*
X24125Y-17250D01*
X23999Y-17250D01*
X23930Y-17249D01*
X23930Y-17250D01*
X23399Y-17250D01*
X23330Y-17249D01*
X23330Y-17250D01*
X22799Y-17250D01*
X22730Y-17249D01*
X22730Y-17250D01*
X22400Y-17250D01*
X22400Y-12381D01*
X22308Y-12160D01*
X22140Y-11991D01*
X21919Y-11900D01*
X21681Y-11899D01*
X21460Y-11991D01*
X21299Y-12151D01*
X21140Y-11991D01*
X21125Y-11985D01*
X21125Y-9796D01*
X21045Y-9603D01*
X20897Y-9455D01*
X20704Y-9375D01*
X20496Y-9374D01*
X20303Y-9454D01*
X20155Y-9602D01*
X20075Y-9795D01*
X20074Y-10003D01*
X20154Y-10197D01*
X20302Y-10344D01*
X20495Y-10424D01*
X20703Y-10425D01*
X20897Y-10345D01*
X21044Y-10197D01*
X21124Y-10004D01*
X21125Y-9796D01*
X21125Y-11985D01*
X21125Y-11985D01*
X21125Y-11225D01*
X21125Y-10675D01*
X21087Y-10583D01*
X21016Y-10513D01*
X20924Y-10475D01*
X20825Y-10474D01*
X20275Y-10474D01*
X20183Y-10512D01*
X20113Y-10583D01*
X20075Y-10675D01*
X20074Y-10774D01*
X20074Y-11324D01*
X20112Y-11416D01*
X20183Y-11486D01*
X20275Y-11524D01*
X20374Y-11525D01*
X20924Y-11525D01*
X21016Y-11487D01*
X21086Y-11416D01*
X21124Y-11324D01*
X21125Y-11225D01*
X21125Y-11985D01*
X20919Y-11900D01*
X20681Y-11899D01*
X20460Y-11991D01*
X20385Y-12065D01*
X20362Y-12008D01*
X20291Y-11938D01*
X20199Y-11900D01*
X20100Y-11899D01*
X19929Y-11899D01*
X19929Y-10975D01*
X19925Y-10887D01*
X19925Y-9796D01*
X19845Y-9603D01*
X19697Y-9455D01*
X19504Y-9375D01*
X19296Y-9374D01*
X19103Y-9454D01*
X18955Y-9602D01*
X18875Y-9795D01*
X18874Y-10003D01*
X18954Y-10197D01*
X19102Y-10344D01*
X19228Y-10397D01*
X19127Y-10439D01*
X19102Y-10532D01*
X19400Y-10829D01*
X19697Y-10532D01*
X19672Y-10439D01*
X19562Y-10400D01*
X19697Y-10345D01*
X19844Y-10197D01*
X19924Y-10004D01*
X19925Y-9796D01*
X19925Y-10887D01*
X19918Y-10767D01*
X19860Y-10627D01*
X19767Y-10602D01*
X19470Y-10900D01*
X19767Y-11197D01*
X19860Y-11172D01*
X19929Y-10975D01*
X19929Y-11899D01*
X19912Y-11900D01*
X19850Y-11962D01*
X19850Y-12450D01*
X19857Y-12450D01*
X19857Y-12550D01*
X19850Y-12550D01*
X19850Y-13037D01*
X19894Y-13081D01*
X19775Y-13200D01*
X19750Y-13200D01*
X19750Y-13037D01*
X19750Y-12550D01*
X19750Y-12450D01*
X19750Y-11962D01*
X19697Y-11909D01*
X19697Y-11267D01*
X19400Y-10970D01*
X19329Y-11041D01*
X19329Y-10900D01*
X19032Y-10602D01*
X18939Y-10627D01*
X18870Y-10824D01*
X18881Y-11032D01*
X18939Y-11172D01*
X19032Y-11197D01*
X19329Y-10900D01*
X19329Y-11041D01*
X19102Y-11267D01*
X19127Y-11360D01*
X19324Y-11429D01*
X19532Y-11418D01*
X19672Y-11360D01*
X19697Y-11267D01*
X19697Y-11909D01*
X19687Y-11900D01*
X19499Y-11899D01*
X19400Y-11900D01*
X19308Y-11938D01*
X19237Y-12008D01*
X19199Y-12100D01*
X19200Y-12387D01*
X19262Y-12450D01*
X19750Y-12450D01*
X19750Y-12550D01*
X19262Y-12550D01*
X19200Y-12612D01*
X19199Y-12899D01*
X19237Y-12991D01*
X19308Y-13061D01*
X19400Y-13099D01*
X19499Y-13100D01*
X19687Y-13100D01*
X19750Y-13037D01*
X19750Y-13200D01*
X18900Y-13200D01*
X18800Y-13200D01*
X18685Y-13222D01*
X18587Y-13287D01*
X18075Y-13800D01*
X17954Y-13800D01*
X17954Y-10881D01*
X17943Y-10663D01*
X17881Y-10512D01*
X17785Y-10484D01*
X17715Y-10555D01*
X17715Y-10414D01*
X17687Y-10318D01*
X17481Y-10245D01*
X17263Y-10256D01*
X17112Y-10318D01*
X17084Y-10414D01*
X17400Y-10729D01*
X17715Y-10414D01*
X17715Y-10555D01*
X17470Y-10800D01*
X17785Y-11115D01*
X17881Y-11087D01*
X17954Y-10881D01*
X17954Y-13800D01*
X17950Y-13800D01*
X17950Y-12050D01*
X17950Y-11450D01*
X17912Y-11358D01*
X17841Y-11288D01*
X17749Y-11250D01*
X17696Y-11249D01*
X17715Y-11185D01*
X17400Y-10870D01*
X17329Y-10941D01*
X17329Y-10800D01*
X17014Y-10484D01*
X16918Y-10512D01*
X16845Y-10718D01*
X16856Y-10936D01*
X16918Y-11087D01*
X17014Y-11115D01*
X17329Y-10800D01*
X17329Y-10941D01*
X17084Y-11185D01*
X17103Y-11249D01*
X17050Y-11249D01*
X16958Y-11287D01*
X16888Y-11358D01*
X16850Y-11450D01*
X16849Y-11549D01*
X16849Y-12149D01*
X16887Y-12241D01*
X16958Y-12311D01*
X17050Y-12349D01*
X17149Y-12350D01*
X17749Y-12350D01*
X17841Y-12312D01*
X17911Y-12241D01*
X17949Y-12149D01*
X17950Y-12050D01*
X17950Y-13800D01*
X17464Y-13800D01*
X17597Y-13745D01*
X17744Y-13597D01*
X17824Y-13404D01*
X17825Y-13196D01*
X17745Y-13003D01*
X17597Y-12855D01*
X17404Y-12775D01*
X17196Y-12774D01*
X17003Y-12854D01*
X16855Y-13002D01*
X16775Y-13195D01*
X16774Y-13403D01*
X16854Y-13597D01*
X17002Y-13744D01*
X17135Y-13800D01*
X16424Y-13800D01*
X16012Y-13387D01*
X15914Y-13322D01*
X15800Y-13300D01*
X15464Y-13300D01*
X15597Y-13245D01*
X15744Y-13097D01*
X15824Y-12904D01*
X15825Y-12696D01*
X15825Y-12695D01*
X15825Y-10025D01*
X15825Y-9574D01*
X15824Y-9475D01*
X15786Y-9383D01*
X15716Y-9312D01*
X15624Y-9274D01*
X15412Y-9275D01*
X15350Y-9337D01*
X15350Y-9750D01*
X15762Y-9750D01*
X15825Y-9687D01*
X15825Y-9574D01*
X15825Y-10025D01*
X15825Y-9912D01*
X15762Y-9850D01*
X15350Y-9850D01*
X15350Y-10262D01*
X15412Y-10325D01*
X15624Y-10325D01*
X15716Y-10287D01*
X15786Y-10216D01*
X15824Y-10124D01*
X15825Y-10025D01*
X15825Y-12695D01*
X15745Y-12503D01*
X15597Y-12355D01*
X15404Y-12275D01*
X15196Y-12274D01*
X15003Y-12354D01*
X14855Y-12502D01*
X14799Y-12635D01*
X14745Y-12503D01*
X14597Y-12355D01*
X14404Y-12275D01*
X14196Y-12274D01*
X14003Y-12354D01*
X13855Y-12502D01*
X13799Y-12635D01*
X13745Y-12503D01*
X13600Y-12357D01*
X13600Y-12124D01*
X14512Y-11212D01*
X14512Y-11212D01*
X14577Y-11114D01*
X14599Y-11000D01*
X14600Y-11000D01*
X14600Y-10242D01*
X14744Y-10097D01*
X14774Y-10025D01*
X14774Y-10025D01*
X14775Y-10124D01*
X14813Y-10216D01*
X14883Y-10287D01*
X14975Y-10325D01*
X15187Y-10325D01*
X15250Y-10262D01*
X15250Y-9850D01*
X15242Y-9850D01*
X15242Y-9750D01*
X15250Y-9750D01*
X15250Y-9337D01*
X15187Y-9275D01*
X14975Y-9274D01*
X14883Y-9312D01*
X14813Y-9383D01*
X14775Y-9475D01*
X14774Y-9574D01*
X14774Y-9574D01*
X14745Y-9503D01*
X14597Y-9355D01*
X14404Y-9275D01*
X14196Y-9274D01*
X14003Y-9354D01*
X13855Y-9502D01*
X13799Y-9635D01*
X13745Y-9503D01*
X13597Y-9355D01*
X13404Y-9275D01*
X13196Y-9274D01*
X13003Y-9354D01*
X12855Y-9502D01*
X12799Y-9635D01*
X12745Y-9503D01*
X12597Y-9355D01*
X12404Y-9275D01*
X12196Y-9274D01*
X12003Y-9354D01*
X11855Y-9502D01*
X11775Y-9695D01*
X11774Y-9903D01*
X11854Y-10097D01*
X12002Y-10244D01*
X12195Y-10324D01*
X12403Y-10325D01*
X12597Y-10245D01*
X12744Y-10097D01*
X12800Y-9964D01*
X12854Y-10097D01*
X13002Y-10244D01*
X13195Y-10324D01*
X13403Y-10325D01*
X13597Y-10245D01*
X13744Y-10097D01*
X13800Y-9964D01*
X13854Y-10097D01*
X14000Y-10242D01*
X14000Y-10875D01*
X13087Y-11787D01*
X13022Y-11885D01*
X13000Y-12000D01*
X13000Y-12357D01*
X12855Y-12502D01*
X12799Y-12635D01*
X12745Y-12503D01*
X12597Y-12355D01*
X12404Y-12275D01*
X12196Y-12274D01*
X12003Y-12354D01*
X11855Y-12502D01*
X11775Y-12695D01*
X11774Y-12903D01*
X11854Y-13097D01*
X12002Y-13244D01*
X12195Y-13324D01*
X12403Y-13325D01*
X12597Y-13245D01*
X12744Y-13097D01*
X12800Y-12964D01*
X12854Y-13097D01*
X13002Y-13244D01*
X13195Y-13324D01*
X13403Y-13325D01*
X13597Y-13245D01*
X13744Y-13097D01*
X13800Y-12964D01*
X13854Y-13097D01*
X13916Y-13159D01*
X12975Y-14100D01*
X12742Y-14100D01*
X12597Y-13955D01*
X12404Y-13875D01*
X12196Y-13874D01*
X12003Y-13954D01*
X11855Y-14102D01*
X11775Y-14295D01*
X11774Y-14503D01*
X11854Y-14697D01*
X12002Y-14844D01*
X12195Y-14924D01*
X12403Y-14925D01*
X12597Y-14845D01*
X12742Y-14700D01*
X13100Y-14700D01*
X13100Y-14699D01*
X13214Y-14677D01*
X13214Y-14677D01*
X13312Y-14612D01*
X14300Y-13624D01*
X14487Y-13812D01*
X14487Y-13812D01*
X14585Y-13877D01*
X14699Y-13899D01*
X14700Y-13900D01*
X15135Y-13900D01*
X15003Y-13954D01*
X14855Y-14102D01*
X14775Y-14295D01*
X14774Y-14503D01*
X14854Y-14697D01*
X15002Y-14844D01*
X15195Y-14924D01*
X15403Y-14925D01*
X15597Y-14845D01*
X15744Y-14697D01*
X15824Y-14504D01*
X15825Y-14296D01*
X15745Y-14103D01*
X15597Y-13955D01*
X15464Y-13900D01*
X15675Y-13900D01*
X16087Y-14312D01*
X16087Y-14312D01*
X16185Y-14377D01*
X16300Y-14400D01*
X18075Y-14400D01*
X18387Y-14712D01*
X18387Y-14712D01*
X18485Y-14777D01*
X18599Y-14799D01*
X18600Y-14800D01*
X19274Y-14800D01*
X19291Y-14839D01*
X19459Y-15008D01*
X19680Y-15099D01*
X19918Y-15100D01*
X20139Y-15008D01*
X20300Y-14848D01*
X20459Y-15008D01*
X20680Y-15099D01*
X20918Y-15100D01*
X21139Y-15008D01*
X21214Y-14934D01*
X21237Y-14991D01*
X21308Y-15061D01*
X21400Y-15099D01*
X21499Y-15100D01*
X21687Y-15100D01*
X21750Y-15037D01*
X21750Y-14550D01*
X21742Y-14550D01*
X21742Y-14450D01*
X21750Y-14450D01*
X21750Y-13962D01*
X21687Y-13900D01*
X21499Y-13899D01*
X21400Y-13900D01*
X21308Y-13938D01*
X21237Y-14008D01*
X21214Y-14065D01*
X21140Y-13991D01*
X20919Y-13900D01*
X20681Y-13899D01*
X20460Y-13991D01*
X20299Y-14151D01*
X20140Y-13991D01*
X19919Y-13900D01*
X19681Y-13899D01*
X19460Y-13991D01*
X19291Y-14159D01*
X19274Y-14200D01*
X18724Y-14200D01*
X18624Y-14099D01*
X18924Y-13800D01*
X19900Y-13800D01*
X19900Y-13799D01*
X20014Y-13777D01*
X20014Y-13777D01*
X20112Y-13712D01*
X20724Y-13099D01*
X20918Y-13100D01*
X21139Y-13008D01*
X21300Y-12848D01*
X21459Y-13008D01*
X21680Y-13099D01*
X21918Y-13100D01*
X22139Y-13008D01*
X22308Y-12840D01*
X22399Y-12619D01*
X22400Y-12381D01*
X22400Y-17250D01*
X22400Y-17250D01*
X22400Y-14899D01*
X22400Y-14100D01*
X22362Y-14008D01*
X22291Y-13938D01*
X22199Y-13900D01*
X22100Y-13899D01*
X21912Y-13900D01*
X21850Y-13962D01*
X21850Y-14450D01*
X22337Y-14450D01*
X22400Y-14387D01*
X22400Y-14100D01*
X22400Y-14899D01*
X22400Y-14612D01*
X22337Y-14550D01*
X21850Y-14550D01*
X21850Y-15037D01*
X21912Y-15100D01*
X22100Y-15100D01*
X22199Y-15099D01*
X22291Y-15061D01*
X22362Y-14991D01*
X22400Y-14899D01*
X22400Y-17250D01*
X22354Y-17250D01*
X22354Y-16381D01*
X22343Y-16163D01*
X22281Y-16012D01*
X22185Y-15984D01*
X22115Y-16055D01*
X22115Y-15914D01*
X22087Y-15818D01*
X21881Y-15745D01*
X21663Y-15756D01*
X21512Y-15818D01*
X21484Y-15914D01*
X21800Y-16229D01*
X22115Y-15914D01*
X22115Y-16055D01*
X21870Y-16300D01*
X22185Y-16615D01*
X22281Y-16587D01*
X22354Y-16381D01*
X22354Y-17250D01*
X22199Y-17250D01*
X22130Y-17249D01*
X22130Y-17250D01*
X22115Y-17250D01*
X22115Y-16685D01*
X21800Y-16370D01*
X21729Y-16441D01*
X21729Y-16300D01*
X21414Y-15984D01*
X21318Y-16012D01*
X21299Y-16067D01*
X21266Y-15988D01*
X21111Y-15834D01*
X20909Y-15750D01*
X20691Y-15749D01*
X20488Y-15833D01*
X20334Y-15988D01*
X20300Y-16069D01*
X20266Y-15988D01*
X20111Y-15834D01*
X19909Y-15750D01*
X19691Y-15749D01*
X19488Y-15833D01*
X19350Y-15972D01*
X19350Y-15950D01*
X19312Y-15858D01*
X19241Y-15788D01*
X19149Y-15750D01*
X19050Y-15749D01*
X18450Y-15749D01*
X18358Y-15787D01*
X18288Y-15858D01*
X18250Y-15950D01*
X18249Y-16049D01*
X18249Y-16649D01*
X18287Y-16741D01*
X18358Y-16811D01*
X18450Y-16849D01*
X18549Y-16850D01*
X19149Y-16850D01*
X19241Y-16812D01*
X19311Y-16741D01*
X19349Y-16649D01*
X19349Y-16627D01*
X19488Y-16765D01*
X19690Y-16849D01*
X19908Y-16850D01*
X20111Y-16766D01*
X20265Y-16611D01*
X20299Y-16530D01*
X20333Y-16611D01*
X20488Y-16765D01*
X20690Y-16849D01*
X20908Y-16850D01*
X21111Y-16766D01*
X21265Y-16611D01*
X21297Y-16536D01*
X21318Y-16587D01*
X21414Y-16615D01*
X21729Y-16300D01*
X21729Y-16441D01*
X21484Y-16685D01*
X21512Y-16781D01*
X21718Y-16854D01*
X21936Y-16843D01*
X22087Y-16781D01*
X22115Y-16685D01*
X22115Y-17250D01*
X21599Y-17250D01*
X21530Y-17249D01*
X21530Y-17250D01*
X20999Y-17250D01*
X20930Y-17249D01*
X20930Y-17250D01*
X20399Y-17250D01*
X20330Y-17249D01*
X20330Y-17250D01*
X19799Y-17250D01*
X19730Y-17249D01*
X19730Y-17250D01*
X19199Y-17250D01*
X19130Y-17249D01*
X19130Y-17250D01*
X18599Y-17250D01*
X18530Y-17249D01*
X18530Y-17250D01*
X17999Y-17250D01*
X17930Y-17249D01*
X17930Y-17250D01*
X17825Y-17250D01*
X17825Y-16525D01*
X17825Y-15975D01*
X17787Y-15883D01*
X17716Y-15813D01*
X17624Y-15775D01*
X17525Y-15774D01*
X16975Y-15774D01*
X16883Y-15812D01*
X16813Y-15883D01*
X16775Y-15975D01*
X16774Y-16074D01*
X16774Y-16624D01*
X16812Y-16716D01*
X16883Y-16786D01*
X16975Y-16824D01*
X17074Y-16825D01*
X17624Y-16825D01*
X17716Y-16787D01*
X17786Y-16716D01*
X17824Y-16624D01*
X17825Y-16525D01*
X17825Y-17250D01*
X17399Y-17250D01*
X17330Y-17249D01*
X17330Y-17250D01*
X16799Y-17250D01*
X16730Y-17249D01*
X16730Y-17250D01*
X16729Y-17250D01*
X16729Y-15375D01*
X16718Y-15167D01*
X16660Y-15027D01*
X16567Y-15002D01*
X16497Y-15073D01*
X16497Y-14932D01*
X16472Y-14839D01*
X16275Y-14770D01*
X16067Y-14781D01*
X15927Y-14839D01*
X15902Y-14932D01*
X16200Y-15229D01*
X16497Y-14932D01*
X16497Y-15073D01*
X16270Y-15300D01*
X16567Y-15597D01*
X16660Y-15572D01*
X16729Y-15375D01*
X16729Y-17250D01*
X16725Y-17250D01*
X16725Y-16196D01*
X16645Y-16003D01*
X16497Y-15855D01*
X16371Y-15802D01*
X16472Y-15760D01*
X16497Y-15667D01*
X16200Y-15370D01*
X16129Y-15441D01*
X16129Y-15300D01*
X15832Y-15002D01*
X15739Y-15027D01*
X15670Y-15224D01*
X15681Y-15432D01*
X15739Y-15572D01*
X15832Y-15597D01*
X16129Y-15300D01*
X16129Y-15441D01*
X15902Y-15667D01*
X15927Y-15760D01*
X16037Y-15799D01*
X15903Y-15854D01*
X15755Y-16002D01*
X15675Y-16195D01*
X15674Y-16403D01*
X15754Y-16597D01*
X15902Y-16744D01*
X16095Y-16824D01*
X16303Y-16825D01*
X16497Y-16745D01*
X16644Y-16597D01*
X16724Y-16404D01*
X16725Y-16196D01*
X16725Y-17250D01*
X16199Y-17250D01*
X16130Y-17249D01*
X16130Y-17250D01*
X15599Y-17250D01*
X15530Y-17249D01*
X15530Y-17250D01*
X15000Y-17250D01*
X15000Y-16600D01*
X15000Y-15900D01*
X14962Y-15808D01*
X14891Y-15738D01*
X14799Y-15700D01*
X14700Y-15699D01*
X14000Y-15699D01*
X13908Y-15737D01*
X13838Y-15808D01*
X13818Y-15854D01*
X13796Y-15832D01*
X13751Y-15877D01*
X13717Y-15777D01*
X13493Y-15695D01*
X13255Y-15705D01*
X13082Y-15777D01*
X13048Y-15877D01*
X13400Y-16229D01*
X13405Y-16223D01*
X13476Y-16294D01*
X13470Y-16300D01*
X13476Y-16305D01*
X13405Y-16376D01*
X13400Y-16370D01*
X13329Y-16441D01*
X13329Y-16300D01*
X12977Y-15948D01*
X12912Y-15970D01*
X12908Y-15960D01*
X12740Y-15791D01*
X12519Y-15700D01*
X12281Y-15699D01*
X12060Y-15791D01*
X11891Y-15959D01*
X11800Y-16180D01*
X11799Y-16418D01*
X11891Y-16639D01*
X12059Y-16808D01*
X12280Y-16899D01*
X12518Y-16900D01*
X12739Y-16808D01*
X12908Y-16640D01*
X12912Y-16629D01*
X12977Y-16651D01*
X13329Y-16300D01*
X13329Y-16441D01*
X13048Y-16722D01*
X13082Y-16822D01*
X13306Y-16904D01*
X13544Y-16894D01*
X13717Y-16822D01*
X13751Y-16722D01*
X13751Y-16722D01*
X13796Y-16767D01*
X13818Y-16745D01*
X13837Y-16791D01*
X13908Y-16861D01*
X14000Y-16899D01*
X14099Y-16900D01*
X14799Y-16900D01*
X14891Y-16862D01*
X14961Y-16791D01*
X14999Y-16699D01*
X15000Y-16600D01*
X15000Y-17250D01*
X14999Y-17250D01*
X14930Y-17249D01*
X14930Y-17250D01*
X14399Y-17250D01*
X14330Y-17249D01*
X14330Y-17250D01*
X13799Y-17250D01*
X13751Y-17249D01*
X13730Y-17249D01*
X13730Y-17250D01*
X13199Y-17250D01*
X13130Y-17249D01*
X13130Y-17250D01*
X12599Y-17250D01*
X12530Y-17249D01*
X12530Y-17250D01*
X11999Y-17250D01*
X11930Y-17249D01*
X11930Y-17250D01*
X11429Y-17250D01*
X11429Y-13875D01*
X11425Y-13787D01*
X11425Y-12696D01*
X11345Y-12503D01*
X11197Y-12355D01*
X11004Y-12275D01*
X10796Y-12274D01*
X10750Y-12293D01*
X10750Y-9492D01*
X10590Y-9106D01*
X10295Y-8810D01*
X9909Y-8650D01*
X9492Y-8649D01*
X9106Y-8809D01*
X8810Y-9104D01*
X8650Y-9490D01*
X8649Y-9907D01*
X8809Y-10294D01*
X9104Y-10589D01*
X9490Y-10749D01*
X9907Y-10750D01*
X10294Y-10590D01*
X10589Y-10295D01*
X10749Y-9909D01*
X10750Y-9492D01*
X10750Y-12293D01*
X10725Y-12304D01*
X10725Y-11296D01*
X10645Y-11103D01*
X10497Y-10955D01*
X10304Y-10875D01*
X10096Y-10874D01*
X9903Y-10954D01*
X9755Y-11102D01*
X9702Y-11228D01*
X9660Y-11127D01*
X9567Y-11102D01*
X9497Y-11173D01*
X9497Y-11032D01*
X9472Y-10939D01*
X9275Y-10870D01*
X9067Y-10881D01*
X8927Y-10939D01*
X8902Y-11032D01*
X9200Y-11329D01*
X9497Y-11032D01*
X9497Y-11173D01*
X9270Y-11400D01*
X9567Y-11697D01*
X9660Y-11672D01*
X9699Y-11562D01*
X9754Y-11697D01*
X9902Y-11844D01*
X10095Y-11924D01*
X10303Y-11925D01*
X10497Y-11845D01*
X10644Y-11697D01*
X10724Y-11504D01*
X10725Y-11296D01*
X10725Y-12304D01*
X10603Y-12354D01*
X10455Y-12502D01*
X10375Y-12695D01*
X10374Y-12903D01*
X10454Y-13097D01*
X10602Y-13244D01*
X10728Y-13297D01*
X10627Y-13339D01*
X10602Y-13432D01*
X10900Y-13729D01*
X11197Y-13432D01*
X11172Y-13339D01*
X11062Y-13300D01*
X11197Y-13245D01*
X11344Y-13097D01*
X11424Y-12904D01*
X11425Y-12696D01*
X11425Y-13787D01*
X11418Y-13667D01*
X11360Y-13527D01*
X11267Y-13502D01*
X10970Y-13800D01*
X11267Y-14097D01*
X11360Y-14072D01*
X11429Y-13875D01*
X11429Y-17250D01*
X11399Y-17250D01*
X11330Y-17249D01*
X11330Y-17250D01*
X11197Y-17250D01*
X11197Y-14167D01*
X10900Y-13870D01*
X10829Y-13941D01*
X10829Y-13800D01*
X10532Y-13502D01*
X10439Y-13527D01*
X10370Y-13724D01*
X10381Y-13932D01*
X10439Y-14072D01*
X10532Y-14097D01*
X10829Y-13800D01*
X10829Y-13941D01*
X10602Y-14167D01*
X10627Y-14260D01*
X10824Y-14329D01*
X11032Y-14318D01*
X11172Y-14260D01*
X11197Y-14167D01*
X11197Y-17250D01*
X10799Y-17250D01*
X10750Y-17249D01*
X10750Y-15492D01*
X10590Y-15106D01*
X10295Y-14810D01*
X9909Y-14650D01*
X9754Y-14650D01*
X9754Y-13881D01*
X9750Y-13787D01*
X9750Y-13050D01*
X9750Y-12450D01*
X9712Y-12358D01*
X9641Y-12288D01*
X9549Y-12250D01*
X9497Y-12249D01*
X9497Y-11767D01*
X9200Y-11470D01*
X9129Y-11541D01*
X9129Y-11400D01*
X8832Y-11102D01*
X8739Y-11127D01*
X8670Y-11324D01*
X8681Y-11532D01*
X8739Y-11672D01*
X8832Y-11697D01*
X9129Y-11400D01*
X9129Y-11541D01*
X8902Y-11767D01*
X8927Y-11860D01*
X9124Y-11929D01*
X9332Y-11918D01*
X9472Y-11860D01*
X9497Y-11767D01*
X9497Y-12249D01*
X9450Y-12249D01*
X8850Y-12249D01*
X8758Y-12287D01*
X8688Y-12358D01*
X8650Y-12450D01*
X8649Y-12549D01*
X8649Y-13149D01*
X8687Y-13241D01*
X8758Y-13311D01*
X8850Y-13349D01*
X8903Y-13350D01*
X8884Y-13414D01*
X9200Y-13729D01*
X9515Y-13414D01*
X9496Y-13350D01*
X9549Y-13350D01*
X9641Y-13312D01*
X9711Y-13241D01*
X9749Y-13149D01*
X9750Y-13050D01*
X9750Y-13787D01*
X9743Y-13663D01*
X9681Y-13512D01*
X9585Y-13484D01*
X9270Y-13800D01*
X9585Y-14115D01*
X9681Y-14087D01*
X9754Y-13881D01*
X9754Y-14650D01*
X9515Y-14649D01*
X9515Y-14185D01*
X9200Y-13870D01*
X9129Y-13941D01*
X9129Y-13800D01*
X8814Y-13484D01*
X8718Y-13512D01*
X8645Y-13718D01*
X8656Y-13936D01*
X8718Y-14087D01*
X8814Y-14115D01*
X9129Y-13800D01*
X9129Y-13941D01*
X8884Y-14185D01*
X8912Y-14281D01*
X9118Y-14354D01*
X9336Y-14343D01*
X9487Y-14281D01*
X9515Y-14185D01*
X9515Y-14649D01*
X9492Y-14649D01*
X9106Y-14809D01*
X8810Y-15104D01*
X8650Y-15490D01*
X8649Y-15907D01*
X8809Y-16294D01*
X9104Y-16589D01*
X9490Y-16749D01*
X9907Y-16750D01*
X10294Y-16590D01*
X10589Y-16295D01*
X10749Y-15909D01*
X10750Y-15492D01*
X10750Y-17249D01*
X10730Y-17249D01*
X10730Y-17250D01*
X10199Y-17250D01*
X10130Y-17249D01*
X10130Y-17250D01*
X9599Y-17250D01*
X9530Y-17249D01*
X9530Y-17250D01*
X8999Y-17250D01*
X8930Y-17249D01*
X8930Y-17250D01*
X8399Y-17250D01*
X8330Y-17249D01*
X8330Y-17250D01*
X8250Y-17250D01*
X8250Y-8169D01*
X27130Y-8169D01*
X27130Y-17250D01*
X27130Y-17250D01*
G37*
G54D18*
X27130Y-17250D02*
X26999Y-17250D01*
X26930Y-17249D01*
X26930Y-17250D01*
X26650Y-17250D01*
X26650Y-15492D01*
X26490Y-15106D01*
X26195Y-14810D01*
X25809Y-14650D01*
X25800Y-14650D01*
X25800Y-11481D01*
X25708Y-11260D01*
X25540Y-11091D01*
X25495Y-11073D01*
X25511Y-11066D01*
X25665Y-10911D01*
X25749Y-10709D01*
X25750Y-10491D01*
X25666Y-10288D01*
X25511Y-10134D01*
X25495Y-10127D01*
X25539Y-10108D01*
X25708Y-9940D01*
X25799Y-9719D01*
X25800Y-9481D01*
X25708Y-9260D01*
X25540Y-9091D01*
X25319Y-9000D01*
X25081Y-8999D01*
X24860Y-9091D01*
X24691Y-9259D01*
X24600Y-9480D01*
X24599Y-9718D01*
X24691Y-9939D01*
X24859Y-10108D01*
X24904Y-10126D01*
X24888Y-10133D01*
X24734Y-10288D01*
X24650Y-10490D01*
X24649Y-10708D01*
X24733Y-10911D01*
X24888Y-11065D01*
X24904Y-11072D01*
X24860Y-11091D01*
X24691Y-11259D01*
X24600Y-11480D01*
X24599Y-11718D01*
X24691Y-11939D01*
X24859Y-12108D01*
X24904Y-12126D01*
X24888Y-12133D01*
X24734Y-12288D01*
X24650Y-12490D01*
X24649Y-12708D01*
X24733Y-12911D01*
X24822Y-12999D01*
X24800Y-12999D01*
X24708Y-13037D01*
X24638Y-13108D01*
X24600Y-13200D01*
X24599Y-13299D01*
X24599Y-13999D01*
X24637Y-14091D01*
X24708Y-14161D01*
X24800Y-14199D01*
X24899Y-14200D01*
X25599Y-14200D01*
X25691Y-14162D01*
X25761Y-14091D01*
X25799Y-13999D01*
X25800Y-13900D01*
X25800Y-13200D01*
X25762Y-13108D01*
X25691Y-13038D01*
X25599Y-13000D01*
X25577Y-13000D01*
X25665Y-12911D01*
X25749Y-12709D01*
X25750Y-12491D01*
X25666Y-12288D01*
X25511Y-12134D01*
X25495Y-12127D01*
X25539Y-12108D01*
X25708Y-11940D01*
X25799Y-11719D01*
X25800Y-11481D01*
X25800Y-14650D01*
X25392Y-14649D01*
X25006Y-14809D01*
X24710Y-15104D01*
X24550Y-15490D01*
X24549Y-15907D01*
X24709Y-16294D01*
X25004Y-16589D01*
X25390Y-16749D01*
X25807Y-16750D01*
X26194Y-16590D01*
X26489Y-16295D01*
X26649Y-15909D01*
X26650Y-15492D01*
X26650Y-17250D01*
X26399Y-17250D01*
X26330Y-17249D01*
X26330Y-17250D01*
X25799Y-17250D01*
X25730Y-17249D01*
X25730Y-17250D01*
X25199Y-17250D01*
X25130Y-17249D01*
X25130Y-17250D01*
X24599Y-17250D01*
X24530Y-17249D01*
X24530Y-17250D01*
X24125Y-17250D01*
X24125Y-10896D01*
X24125Y-10895D01*
X24125Y-10125D01*
X24125Y-9575D01*
X24087Y-9483D01*
X24016Y-9413D01*
X23924Y-9375D01*
X23825Y-9374D01*
X23275Y-9374D01*
X23183Y-9412D01*
X23113Y-9483D01*
X23075Y-9575D01*
X23074Y-9674D01*
X23074Y-10224D01*
X23112Y-10316D01*
X23183Y-10386D01*
X23275Y-10424D01*
X23374Y-10425D01*
X23924Y-10425D01*
X24016Y-10387D01*
X24086Y-10316D01*
X24124Y-10224D01*
X24125Y-10125D01*
X24125Y-10895D01*
X24045Y-10703D01*
X23897Y-10555D01*
X23704Y-10475D01*
X23496Y-10474D01*
X23303Y-10554D01*
X23155Y-10702D01*
X23075Y-10895D01*
X23074Y-11103D01*
X23154Y-11297D01*
X23302Y-11444D01*
X23495Y-11524D01*
X23703Y-11525D01*
X23897Y-11445D01*
X24044Y-11297D01*
X24124Y-11104D01*
X24125Y-10896D01*
X24125Y-17250D01*
X23999Y-17250D01*
X23930Y-17249D01*
X23930Y-17250D01*
X23399Y-17250D01*
X23330Y-17249D01*
X23330Y-17250D01*
X22799Y-17250D01*
X22730Y-17249D01*
X22730Y-17250D01*
X22400Y-17250D01*
X22400Y-12381D01*
X22308Y-12160D01*
X22140Y-11991D01*
X21919Y-11900D01*
X21681Y-11899D01*
X21460Y-11991D01*
X21299Y-12151D01*
X21140Y-11991D01*
X21125Y-11985D01*
X21125Y-9796D01*
X21045Y-9603D01*
X20897Y-9455D01*
X20704Y-9375D01*
X20496Y-9374D01*
X20303Y-9454D01*
X20155Y-9602D01*
X20075Y-9795D01*
X20074Y-10003D01*
X20154Y-10197D01*
X20302Y-10344D01*
X20495Y-10424D01*
X20703Y-10425D01*
X20897Y-10345D01*
X21044Y-10197D01*
X21124Y-10004D01*
X21125Y-9796D01*
X21125Y-11985D01*
X21125Y-11985D01*
X21125Y-11225D01*
X21125Y-10675D01*
X21087Y-10583D01*
X21016Y-10513D01*
X20924Y-10475D01*
X20825Y-10474D01*
X20275Y-10474D01*
X20183Y-10512D01*
X20113Y-10583D01*
X20075Y-10675D01*
X20074Y-10774D01*
X20074Y-11324D01*
X20112Y-11416D01*
X20183Y-11486D01*
X20275Y-11524D01*
X20374Y-11525D01*
X20924Y-11525D01*
X21016Y-11487D01*
X21086Y-11416D01*
X21124Y-11324D01*
X21125Y-11225D01*
X21125Y-11985D01*
X20919Y-11900D01*
X20681Y-11899D01*
X20460Y-11991D01*
X20385Y-12065D01*
X20362Y-12008D01*
X20291Y-11938D01*
X20199Y-11900D01*
X20100Y-11899D01*
X19929Y-11899D01*
X19929Y-10975D01*
X19925Y-10887D01*
X19925Y-9796D01*
X19845Y-9603D01*
X19697Y-9455D01*
X19504Y-9375D01*
X19296Y-9374D01*
X19103Y-9454D01*
X18955Y-9602D01*
X18875Y-9795D01*
X18874Y-10003D01*
X18954Y-10197D01*
X19102Y-10344D01*
X19228Y-10397D01*
X19127Y-10439D01*
X19102Y-10532D01*
X19400Y-10829D01*
X19697Y-10532D01*
X19672Y-10439D01*
X19562Y-10400D01*
X19697Y-10345D01*
X19844Y-10197D01*
X19924Y-10004D01*
X19925Y-9796D01*
X19925Y-10887D01*
X19918Y-10767D01*
X19860Y-10627D01*
X19767Y-10602D01*
X19470Y-10900D01*
X19767Y-11197D01*
X19860Y-11172D01*
X19929Y-10975D01*
X19929Y-11899D01*
X19912Y-11900D01*
X19850Y-11962D01*
X19850Y-12450D01*
X19857Y-12450D01*
X19857Y-12550D01*
X19850Y-12550D01*
X19850Y-13037D01*
X19894Y-13081D01*
X19775Y-13200D01*
X19750Y-13200D01*
X19750Y-13037D01*
X19750Y-12550D01*
X19750Y-12450D01*
X19750Y-11962D01*
X19697Y-11909D01*
X19697Y-11267D01*
X19400Y-10970D01*
X19329Y-11041D01*
X19329Y-10900D01*
X19032Y-10602D01*
X18939Y-10627D01*
X18870Y-10824D01*
X18881Y-11032D01*
X18939Y-11172D01*
X19032Y-11197D01*
X19329Y-10900D01*
X19329Y-11041D01*
X19102Y-11267D01*
X19127Y-11360D01*
X19324Y-11429D01*
X19532Y-11418D01*
X19672Y-11360D01*
X19697Y-11267D01*
X19697Y-11909D01*
X19687Y-11900D01*
X19499Y-11899D01*
X19400Y-11900D01*
X19308Y-11938D01*
X19237Y-12008D01*
X19199Y-12100D01*
X19200Y-12387D01*
X19262Y-12450D01*
X19750Y-12450D01*
X19750Y-12550D01*
X19262Y-12550D01*
X19200Y-12612D01*
X19199Y-12899D01*
X19237Y-12991D01*
X19308Y-13061D01*
X19400Y-13099D01*
X19499Y-13100D01*
X19687Y-13100D01*
X19750Y-13037D01*
X19750Y-13200D01*
X18900Y-13200D01*
X18800Y-13200D01*
X18685Y-13222D01*
X18587Y-13287D01*
X18075Y-13800D01*
X17954Y-13800D01*
X17954Y-10881D01*
X17943Y-10663D01*
X17881Y-10512D01*
X17785Y-10484D01*
X17715Y-10555D01*
X17715Y-10414D01*
X17687Y-10318D01*
X17481Y-10245D01*
X17263Y-10256D01*
X17112Y-10318D01*
X17084Y-10414D01*
X17400Y-10729D01*
X17715Y-10414D01*
X17715Y-10555D01*
X17470Y-10800D01*
X17785Y-11115D01*
X17881Y-11087D01*
X17954Y-10881D01*
X17954Y-13800D01*
X17950Y-13800D01*
X17950Y-12050D01*
X17950Y-11450D01*
X17912Y-11358D01*
X17841Y-11288D01*
X17749Y-11250D01*
X17696Y-11249D01*
X17715Y-11185D01*
X17400Y-10870D01*
X17329Y-10941D01*
X17329Y-10800D01*
X17014Y-10484D01*
X16918Y-10512D01*
X16845Y-10718D01*
X16856Y-10936D01*
X16918Y-11087D01*
X17014Y-11115D01*
X17329Y-10800D01*
X17329Y-10941D01*
X17084Y-11185D01*
X17103Y-11249D01*
X17050Y-11249D01*
X16958Y-11287D01*
X16888Y-11358D01*
X16850Y-11450D01*
X16849Y-11549D01*
X16849Y-12149D01*
X16887Y-12241D01*
X16958Y-12311D01*
X17050Y-12349D01*
X17149Y-12350D01*
X17749Y-12350D01*
X17841Y-12312D01*
X17911Y-12241D01*
X17949Y-12149D01*
X17950Y-12050D01*
X17950Y-13800D01*
X17464Y-13800D01*
X17597Y-13745D01*
X17744Y-13597D01*
X17824Y-13404D01*
X17825Y-13196D01*
X17745Y-13003D01*
X17597Y-12855D01*
X17404Y-12775D01*
X17196Y-12774D01*
X17003Y-12854D01*
X16855Y-13002D01*
X16775Y-13195D01*
X16774Y-13403D01*
X16854Y-13597D01*
X17002Y-13744D01*
X17135Y-13800D01*
X16424Y-13800D01*
X16012Y-13387D01*
X15914Y-13322D01*
X15800Y-13300D01*
X15464Y-13300D01*
X15597Y-13245D01*
X15744Y-13097D01*
X15824Y-12904D01*
X15825Y-12696D01*
X15825Y-12695D01*
X15825Y-10025D01*
X15825Y-9574D01*
X15824Y-9475D01*
X15786Y-9383D01*
X15716Y-9312D01*
X15624Y-9274D01*
X15412Y-9275D01*
X15350Y-9337D01*
X15350Y-9750D01*
X15762Y-9750D01*
X15825Y-9687D01*
X15825Y-9574D01*
X15825Y-10025D01*
X15825Y-9912D01*
X15762Y-9850D01*
X15350Y-9850D01*
X15350Y-10262D01*
X15412Y-10325D01*
X15624Y-10325D01*
X15716Y-10287D01*
X15786Y-10216D01*
X15824Y-10124D01*
X15825Y-10025D01*
X15825Y-12695D01*
X15745Y-12503D01*
X15597Y-12355D01*
X15404Y-12275D01*
X15196Y-12274D01*
X15003Y-12354D01*
X14855Y-12502D01*
X14799Y-12635D01*
X14745Y-12503D01*
X14597Y-12355D01*
X14404Y-12275D01*
X14196Y-12274D01*
X14003Y-12354D01*
X13855Y-12502D01*
X13799Y-12635D01*
X13745Y-12503D01*
X13600Y-12357D01*
X13600Y-12124D01*
X14512Y-11212D01*
X14512Y-11212D01*
X14577Y-11114D01*
X14599Y-11000D01*
X14600Y-11000D01*
X14600Y-10242D01*
X14744Y-10097D01*
X14774Y-10025D01*
X14774Y-10025D01*
X14775Y-10124D01*
X14813Y-10216D01*
X14883Y-10287D01*
X14975Y-10325D01*
X15187Y-10325D01*
X15250Y-10262D01*
X15250Y-9850D01*
X15242Y-9850D01*
X15242Y-9750D01*
X15250Y-9750D01*
X15250Y-9337D01*
X15187Y-9275D01*
X14975Y-9274D01*
X14883Y-9312D01*
X14813Y-9383D01*
X14775Y-9475D01*
X14774Y-9574D01*
X14774Y-9574D01*
X14745Y-9503D01*
X14597Y-9355D01*
X14404Y-9275D01*
X14196Y-9274D01*
X14003Y-9354D01*
X13855Y-9502D01*
X13799Y-9635D01*
X13745Y-9503D01*
X13597Y-9355D01*
X13404Y-9275D01*
X13196Y-9274D01*
X13003Y-9354D01*
X12855Y-9502D01*
X12799Y-9635D01*
X12745Y-9503D01*
X12597Y-9355D01*
X12404Y-9275D01*
X12196Y-9274D01*
X12003Y-9354D01*
X11855Y-9502D01*
X11775Y-9695D01*
X11774Y-9903D01*
X11854Y-10097D01*
X12002Y-10244D01*
X12195Y-10324D01*
X12403Y-10325D01*
X12597Y-10245D01*
X12744Y-10097D01*
X12800Y-9964D01*
X12854Y-10097D01*
X13002Y-10244D01*
X13195Y-10324D01*
X13403Y-10325D01*
X13597Y-10245D01*
X13744Y-10097D01*
X13800Y-9964D01*
X13854Y-10097D01*
X14000Y-10242D01*
X14000Y-10875D01*
X13087Y-11787D01*
X13022Y-11885D01*
X13000Y-12000D01*
X13000Y-12357D01*
X12855Y-12502D01*
X12799Y-12635D01*
X12745Y-12503D01*
X12597Y-12355D01*
X12404Y-12275D01*
X12196Y-12274D01*
X12003Y-12354D01*
X11855Y-12502D01*
X11775Y-12695D01*
X11774Y-12903D01*
X11854Y-13097D01*
X12002Y-13244D01*
X12195Y-13324D01*
X12403Y-13325D01*
X12597Y-13245D01*
X12744Y-13097D01*
X12800Y-12964D01*
X12854Y-13097D01*
X13002Y-13244D01*
X13195Y-13324D01*
X13403Y-13325D01*
X13597Y-13245D01*
X13744Y-13097D01*
X13800Y-12964D01*
X13854Y-13097D01*
X13916Y-13159D01*
X12975Y-14100D01*
X12742Y-14100D01*
X12597Y-13955D01*
X12404Y-13875D01*
X12196Y-13874D01*
X12003Y-13954D01*
X11855Y-14102D01*
X11775Y-14295D01*
X11774Y-14503D01*
X11854Y-14697D01*
X12002Y-14844D01*
X12195Y-14924D01*
X12403Y-14925D01*
X12597Y-14845D01*
X12742Y-14700D01*
X13100Y-14700D01*
X13100Y-14699D01*
X13214Y-14677D01*
X13214Y-14677D01*
X13312Y-14612D01*
X14300Y-13624D01*
X14487Y-13812D01*
X14487Y-13812D01*
X14585Y-13877D01*
X14699Y-13899D01*
X14700Y-13900D01*
X15135Y-13900D01*
X15003Y-13954D01*
X14855Y-14102D01*
X14775Y-14295D01*
X14774Y-14503D01*
X14854Y-14697D01*
X15002Y-14844D01*
X15195Y-14924D01*
X15403Y-14925D01*
X15597Y-14845D01*
X15744Y-14697D01*
X15824Y-14504D01*
X15825Y-14296D01*
X15745Y-14103D01*
X15597Y-13955D01*
X15464Y-13900D01*
X15675Y-13900D01*
X16087Y-14312D01*
X16087Y-14312D01*
X16185Y-14377D01*
X16300Y-14400D01*
X18075Y-14400D01*
X18387Y-14712D01*
X18387Y-14712D01*
X18485Y-14777D01*
X18599Y-14799D01*
X18600Y-14800D01*
X19274Y-14800D01*
X19291Y-14839D01*
X19459Y-15008D01*
X19680Y-15099D01*
X19918Y-15100D01*
X20139Y-15008D01*
X20300Y-14848D01*
X20459Y-15008D01*
X20680Y-15099D01*
X20918Y-15100D01*
X21139Y-15008D01*
X21214Y-14934D01*
X21237Y-14991D01*
X21308Y-15061D01*
X21400Y-15099D01*
X21499Y-15100D01*
X21687Y-15100D01*
X21750Y-15037D01*
X21750Y-14550D01*
X21742Y-14550D01*
X21742Y-14450D01*
X21750Y-14450D01*
X21750Y-13962D01*
X21687Y-13900D01*
X21499Y-13899D01*
X21400Y-13900D01*
X21308Y-13938D01*
X21237Y-14008D01*
X21214Y-14065D01*
X21140Y-13991D01*
X20919Y-13900D01*
X20681Y-13899D01*
X20460Y-13991D01*
X20299Y-14151D01*
X20140Y-13991D01*
X19919Y-13900D01*
X19681Y-13899D01*
X19460Y-13991D01*
X19291Y-14159D01*
X19274Y-14200D01*
X18724Y-14200D01*
X18624Y-14099D01*
X18924Y-13800D01*
X19900Y-13800D01*
X19900Y-13799D01*
X20014Y-13777D01*
X20014Y-13777D01*
X20112Y-13712D01*
X20724Y-13099D01*
X20918Y-13100D01*
X21139Y-13008D01*
X21300Y-12848D01*
X21459Y-13008D01*
X21680Y-13099D01*
X21918Y-13100D01*
X22139Y-13008D01*
X22308Y-12840D01*
X22399Y-12619D01*
X22400Y-12381D01*
X22400Y-17250D01*
X22400Y-17250D01*
X22400Y-14899D01*
X22400Y-14100D01*
X22362Y-14008D01*
X22291Y-13938D01*
X22199Y-13900D01*
X22100Y-13899D01*
X21912Y-13900D01*
X21850Y-13962D01*
X21850Y-14450D01*
X22337Y-14450D01*
X22400Y-14387D01*
X22400Y-14100D01*
X22400Y-14899D01*
X22400Y-14612D01*
X22337Y-14550D01*
X21850Y-14550D01*
X21850Y-15037D01*
X21912Y-15100D01*
X22100Y-15100D01*
X22199Y-15099D01*
X22291Y-15061D01*
X22362Y-14991D01*
X22400Y-14899D01*
X22400Y-17250D01*
X22354Y-17250D01*
X22354Y-16381D01*
X22343Y-16163D01*
X22281Y-16012D01*
X22185Y-15984D01*
X22115Y-16055D01*
X22115Y-15914D01*
X22087Y-15818D01*
X21881Y-15745D01*
X21663Y-15756D01*
X21512Y-15818D01*
X21484Y-15914D01*
X21800Y-16229D01*
X22115Y-15914D01*
X22115Y-16055D01*
X21870Y-16300D01*
X22185Y-16615D01*
X22281Y-16587D01*
X22354Y-16381D01*
X22354Y-17250D01*
X22199Y-17250D01*
X22130Y-17249D01*
X22130Y-17250D01*
X22115Y-17250D01*
X22115Y-16685D01*
X21800Y-16370D01*
X21729Y-16441D01*
X21729Y-16300D01*
X21414Y-15984D01*
X21318Y-16012D01*
X21299Y-16067D01*
X21266Y-15988D01*
X21111Y-15834D01*
X20909Y-15750D01*
X20691Y-15749D01*
X20488Y-15833D01*
X20334Y-15988D01*
X20300Y-16069D01*
X20266Y-15988D01*
X20111Y-15834D01*
X19909Y-15750D01*
X19691Y-15749D01*
X19488Y-15833D01*
X19350Y-15972D01*
X19350Y-15950D01*
X19312Y-15858D01*
X19241Y-15788D01*
X19149Y-15750D01*
X19050Y-15749D01*
X18450Y-15749D01*
X18358Y-15787D01*
X18288Y-15858D01*
X18250Y-15950D01*
X18249Y-16049D01*
X18249Y-16649D01*
X18287Y-16741D01*
X18358Y-16811D01*
X18450Y-16849D01*
X18549Y-16850D01*
X19149Y-16850D01*
X19241Y-16812D01*
X19311Y-16741D01*
X19349Y-16649D01*
X19349Y-16627D01*
X19488Y-16765D01*
X19690Y-16849D01*
X19908Y-16850D01*
X20111Y-16766D01*
X20265Y-16611D01*
X20299Y-16530D01*
X20333Y-16611D01*
X20488Y-16765D01*
X20690Y-16849D01*
X20908Y-16850D01*
X21111Y-16766D01*
X21265Y-16611D01*
X21297Y-16536D01*
X21318Y-16587D01*
X21414Y-16615D01*
X21729Y-16300D01*
X21729Y-16441D01*
X21484Y-16685D01*
X21512Y-16781D01*
X21718Y-16854D01*
X21936Y-16843D01*
X22087Y-16781D01*
X22115Y-16685D01*
X22115Y-17250D01*
X21599Y-17250D01*
X21530Y-17249D01*
X21530Y-17250D01*
X20999Y-17250D01*
X20930Y-17249D01*
X20930Y-17250D01*
X20399Y-17250D01*
X20330Y-17249D01*
X20330Y-17250D01*
X19799Y-17250D01*
X19730Y-17249D01*
X19730Y-17250D01*
X19199Y-17250D01*
X19130Y-17249D01*
X19130Y-17250D01*
X18599Y-17250D01*
X18530Y-17249D01*
X18530Y-17250D01*
X17999Y-17250D01*
X17930Y-17249D01*
X17930Y-17250D01*
X17825Y-17250D01*
X17825Y-16525D01*
X17825Y-15975D01*
X17787Y-15883D01*
X17716Y-15813D01*
X17624Y-15775D01*
X17525Y-15774D01*
X16975Y-15774D01*
X16883Y-15812D01*
X16813Y-15883D01*
X16775Y-15975D01*
X16774Y-16074D01*
X16774Y-16624D01*
X16812Y-16716D01*
X16883Y-16786D01*
X16975Y-16824D01*
X17074Y-16825D01*
X17624Y-16825D01*
X17716Y-16787D01*
X17786Y-16716D01*
X17824Y-16624D01*
X17825Y-16525D01*
X17825Y-17250D01*
X17399Y-17250D01*
X17330Y-17249D01*
X17330Y-17250D01*
X16799Y-17250D01*
X16730Y-17249D01*
X16730Y-17250D01*
X16729Y-17250D01*
X16729Y-15375D01*
X16718Y-15167D01*
X16660Y-15027D01*
X16567Y-15002D01*
X16497Y-15073D01*
X16497Y-14932D01*
X16472Y-14839D01*
X16275Y-14770D01*
X16067Y-14781D01*
X15927Y-14839D01*
X15902Y-14932D01*
X16200Y-15229D01*
X16497Y-14932D01*
X16497Y-15073D01*
X16270Y-15300D01*
X16567Y-15597D01*
X16660Y-15572D01*
X16729Y-15375D01*
X16729Y-17250D01*
X16725Y-17250D01*
X16725Y-16196D01*
X16645Y-16003D01*
X16497Y-15855D01*
X16371Y-15802D01*
X16472Y-15760D01*
X16497Y-15667D01*
X16200Y-15370D01*
X16129Y-15441D01*
X16129Y-15300D01*
X15832Y-15002D01*
X15739Y-15027D01*
X15670Y-15224D01*
X15681Y-15432D01*
X15739Y-15572D01*
X15832Y-15597D01*
X16129Y-15300D01*
X16129Y-15441D01*
X15902Y-15667D01*
X15927Y-15760D01*
X16037Y-15799D01*
X15903Y-15854D01*
X15755Y-16002D01*
X15675Y-16195D01*
X15674Y-16403D01*
X15754Y-16597D01*
X15902Y-16744D01*
X16095Y-16824D01*
X16303Y-16825D01*
X16497Y-16745D01*
X16644Y-16597D01*
X16724Y-16404D01*
X16725Y-16196D01*
X16725Y-17250D01*
X16199Y-17250D01*
X16130Y-17249D01*
X16130Y-17250D01*
X15599Y-17250D01*
X15530Y-17249D01*
X15530Y-17250D01*
X15000Y-17250D01*
X15000Y-16600D01*
X15000Y-15900D01*
X14962Y-15808D01*
X14891Y-15738D01*
X14799Y-15700D01*
X14700Y-15699D01*
X14000Y-15699D01*
X13908Y-15737D01*
X13838Y-15808D01*
X13818Y-15854D01*
X13796Y-15832D01*
X13751Y-15877D01*
X13717Y-15777D01*
X13493Y-15695D01*
X13255Y-15705D01*
X13082Y-15777D01*
X13048Y-15877D01*
X13400Y-16229D01*
X13405Y-16223D01*
X13476Y-16294D01*
X13470Y-16300D01*
X13476Y-16305D01*
X13405Y-16376D01*
X13400Y-16370D01*
X13329Y-16441D01*
X13329Y-16300D01*
X12977Y-15948D01*
X12912Y-15970D01*
X12908Y-15960D01*
X12740Y-15791D01*
X12519Y-15700D01*
X12281Y-15699D01*
X12060Y-15791D01*
X11891Y-15959D01*
X11800Y-16180D01*
X11799Y-16418D01*
X11891Y-16639D01*
X12059Y-16808D01*
X12280Y-16899D01*
X12518Y-16900D01*
X12739Y-16808D01*
X12908Y-16640D01*
X12912Y-16629D01*
X12977Y-16651D01*
X13329Y-16300D01*
X13329Y-16441D01*
X13048Y-16722D01*
X13082Y-16822D01*
X13306Y-16904D01*
X13544Y-16894D01*
X13717Y-16822D01*
X13751Y-16722D01*
X13751Y-16722D01*
X13796Y-16767D01*
X13818Y-16745D01*
X13837Y-16791D01*
X13908Y-16861D01*
X14000Y-16899D01*
X14099Y-16900D01*
X14799Y-16900D01*
X14891Y-16862D01*
X14961Y-16791D01*
X14999Y-16699D01*
X15000Y-16600D01*
X15000Y-17250D01*
X14999Y-17250D01*
X14930Y-17249D01*
X14930Y-17250D01*
X14399Y-17250D01*
X14330Y-17249D01*
X14330Y-17250D01*
X13799Y-17250D01*
X13751Y-17249D01*
X13730Y-17249D01*
X13730Y-17250D01*
X13199Y-17250D01*
X13130Y-17249D01*
X13130Y-17250D01*
X12599Y-17250D01*
X12530Y-17249D01*
X12530Y-17250D01*
X11999Y-17250D01*
X11930Y-17249D01*
X11930Y-17250D01*
X11429Y-17250D01*
X11429Y-13875D01*
X11425Y-13787D01*
X11425Y-12696D01*
X11345Y-12503D01*
X11197Y-12355D01*
X11004Y-12275D01*
X10796Y-12274D01*
X10750Y-12293D01*
X10750Y-9492D01*
X10590Y-9106D01*
X10295Y-8810D01*
X9909Y-8650D01*
X9492Y-8649D01*
X9106Y-8809D01*
X8810Y-9104D01*
X8650Y-9490D01*
X8649Y-9907D01*
X8809Y-10294D01*
X9104Y-10589D01*
X9490Y-10749D01*
X9907Y-10750D01*
X10294Y-10590D01*
X10589Y-10295D01*
X10749Y-9909D01*
X10750Y-9492D01*
X10750Y-12293D01*
X10725Y-12304D01*
X10725Y-11296D01*
X10645Y-11103D01*
X10497Y-10955D01*
X10304Y-10875D01*
X10096Y-10874D01*
X9903Y-10954D01*
X9755Y-11102D01*
X9702Y-11228D01*
X9660Y-11127D01*
X9567Y-11102D01*
X9497Y-11173D01*
X9497Y-11032D01*
X9472Y-10939D01*
X9275Y-10870D01*
X9067Y-10881D01*
X8927Y-10939D01*
X8902Y-11032D01*
X9200Y-11329D01*
X9497Y-11032D01*
X9497Y-11173D01*
X9270Y-11400D01*
X9567Y-11697D01*
X9660Y-11672D01*
X9699Y-11562D01*
X9754Y-11697D01*
X9902Y-11844D01*
X10095Y-11924D01*
X10303Y-11925D01*
X10497Y-11845D01*
X10644Y-11697D01*
X10724Y-11504D01*
X10725Y-11296D01*
X10725Y-12304D01*
X10603Y-12354D01*
X10455Y-12502D01*
X10375Y-12695D01*
X10374Y-12903D01*
X10454Y-13097D01*
X10602Y-13244D01*
X10728Y-13297D01*
X10627Y-13339D01*
X10602Y-13432D01*
X10900Y-13729D01*
X11197Y-13432D01*
X11172Y-13339D01*
X11062Y-13300D01*
X11197Y-13245D01*
X11344Y-13097D01*
X11424Y-12904D01*
X11425Y-12696D01*
X11425Y-13787D01*
X11418Y-13667D01*
X11360Y-13527D01*
X11267Y-13502D01*
X10970Y-13800D01*
X11267Y-14097D01*
X11360Y-14072D01*
X11429Y-13875D01*
X11429Y-17250D01*
X11399Y-17250D01*
X11330Y-17249D01*
X11330Y-17250D01*
X11197Y-17250D01*
X11197Y-14167D01*
X10900Y-13870D01*
X10829Y-13941D01*
X10829Y-13800D01*
X10532Y-13502D01*
X10439Y-13527D01*
X10370Y-13724D01*
X10381Y-13932D01*
X10439Y-14072D01*
X10532Y-14097D01*
X10829Y-13800D01*
X10829Y-13941D01*
X10602Y-14167D01*
X10627Y-14260D01*
X10824Y-14329D01*
X11032Y-14318D01*
X11172Y-14260D01*
X11197Y-14167D01*
X11197Y-17250D01*
X10799Y-17250D01*
X10750Y-17249D01*
X10750Y-15492D01*
X10590Y-15106D01*
X10295Y-14810D01*
X9909Y-14650D01*
X9754Y-14650D01*
X9754Y-13881D01*
X9750Y-13787D01*
X9750Y-13050D01*
X9750Y-12450D01*
X9712Y-12358D01*
X9641Y-12288D01*
X9549Y-12250D01*
X9497Y-12249D01*
X9497Y-11767D01*
X9200Y-11470D01*
X9129Y-11541D01*
X9129Y-11400D01*
X8832Y-11102D01*
X8739Y-11127D01*
X8670Y-11324D01*
X8681Y-11532D01*
X8739Y-11672D01*
X8832Y-11697D01*
X9129Y-11400D01*
X9129Y-11541D01*
X8902Y-11767D01*
X8927Y-11860D01*
X9124Y-11929D01*
X9332Y-11918D01*
X9472Y-11860D01*
X9497Y-11767D01*
X9497Y-12249D01*
X9450Y-12249D01*
X8850Y-12249D01*
X8758Y-12287D01*
X8688Y-12358D01*
X8650Y-12450D01*
X8649Y-12549D01*
X8649Y-13149D01*
X8687Y-13241D01*
X8758Y-13311D01*
X8850Y-13349D01*
X8903Y-13350D01*
X8884Y-13414D01*
X9200Y-13729D01*
X9515Y-13414D01*
X9496Y-13350D01*
X9549Y-13350D01*
X9641Y-13312D01*
X9711Y-13241D01*
X9749Y-13149D01*
X9750Y-13050D01*
X9750Y-13787D01*
X9743Y-13663D01*
X9681Y-13512D01*
X9585Y-13484D01*
X9270Y-13800D01*
X9585Y-14115D01*
X9681Y-14087D01*
X9754Y-13881D01*
X9754Y-14650D01*
X9515Y-14649D01*
X9515Y-14185D01*
X9200Y-13870D01*
X9129Y-13941D01*
X9129Y-13800D01*
X8814Y-13484D01*
X8718Y-13512D01*
X8645Y-13718D01*
X8656Y-13936D01*
X8718Y-14087D01*
X8814Y-14115D01*
X9129Y-13800D01*
X9129Y-13941D01*
X8884Y-14185D01*
X8912Y-14281D01*
X9118Y-14354D01*
X9336Y-14343D01*
X9487Y-14281D01*
X9515Y-14185D01*
X9515Y-14649D01*
X9492Y-14649D01*
X9106Y-14809D01*
X8810Y-15104D01*
X8650Y-15490D01*
X8649Y-15907D01*
X8809Y-16294D01*
X9104Y-16589D01*
X9490Y-16749D01*
X9907Y-16750D01*
X10294Y-16590D01*
X10589Y-16295D01*
X10749Y-15909D01*
X10750Y-15492D01*
X10750Y-17249D01*
X10730Y-17249D01*
X10730Y-17250D01*
X10199Y-17250D01*
X10130Y-17249D01*
X10130Y-17250D01*
X9599Y-17250D01*
X9530Y-17249D01*
X9530Y-17250D01*
X8999Y-17250D01*
X8930Y-17249D01*
X8930Y-17250D01*
X8399Y-17250D01*
X8330Y-17249D01*
X8330Y-17250D01*
X8250Y-17250D01*
X8250Y-8169D01*
X27130Y-8169D01*
X27130Y-17250D01*
G54D10*
G36*
X27130Y-27033D02*
X26999Y-27033D01*
X26930Y-27033D01*
X26930Y-27033D01*
X26650Y-27033D01*
X26650Y-25275D01*
X26490Y-24889D01*
X26195Y-24593D01*
X25809Y-24433D01*
X25800Y-24433D01*
X25800Y-21264D01*
X25708Y-21044D01*
X25540Y-20875D01*
X25495Y-20856D01*
X25511Y-20850D01*
X25665Y-20695D01*
X25749Y-20493D01*
X25750Y-20274D01*
X25666Y-20072D01*
X25511Y-19917D01*
X25495Y-19910D01*
X25539Y-19892D01*
X25708Y-19723D01*
X25799Y-19503D01*
X25800Y-19264D01*
X25708Y-19044D01*
X25540Y-18875D01*
X25319Y-18783D01*
X25081Y-18783D01*
X24860Y-18874D01*
X24691Y-19043D01*
X24600Y-19263D01*
X24599Y-19502D01*
X24691Y-19722D01*
X24859Y-19891D01*
X24904Y-19910D01*
X24888Y-19916D01*
X24734Y-20071D01*
X24650Y-20273D01*
X24649Y-20492D01*
X24733Y-20694D01*
X24888Y-20849D01*
X24904Y-20856D01*
X24860Y-20874D01*
X24691Y-21043D01*
X24600Y-21263D01*
X24599Y-21502D01*
X24691Y-21722D01*
X24859Y-21891D01*
X24904Y-21910D01*
X24888Y-21916D01*
X24734Y-22071D01*
X24650Y-22273D01*
X24649Y-22492D01*
X24733Y-22694D01*
X24822Y-22783D01*
X24800Y-22783D01*
X24708Y-22821D01*
X24638Y-22891D01*
X24600Y-22983D01*
X24599Y-23082D01*
X24599Y-23782D01*
X24637Y-23874D01*
X24708Y-23945D01*
X24800Y-23983D01*
X24899Y-23983D01*
X25599Y-23983D01*
X25691Y-23945D01*
X25761Y-23875D01*
X25799Y-23783D01*
X25800Y-23683D01*
X25800Y-22983D01*
X25762Y-22892D01*
X25691Y-22821D01*
X25599Y-22783D01*
X25577Y-22783D01*
X25665Y-22695D01*
X25749Y-22493D01*
X25750Y-22274D01*
X25666Y-22072D01*
X25511Y-21917D01*
X25495Y-21910D01*
X25539Y-21892D01*
X25708Y-21723D01*
X25799Y-21503D01*
X25800Y-21264D01*
X25800Y-24433D01*
X25392Y-24433D01*
X25006Y-24592D01*
X24710Y-24887D01*
X24550Y-25273D01*
X24549Y-25691D01*
X24709Y-26077D01*
X25004Y-26373D01*
X25390Y-26533D01*
X25807Y-26533D01*
X26194Y-26374D01*
X26489Y-26079D01*
X26649Y-25693D01*
X26650Y-25275D01*
X26650Y-27033D01*
X26399Y-27033D01*
X26330Y-27033D01*
X26330Y-27033D01*
X25799Y-27033D01*
X25730Y-27033D01*
X25730Y-27033D01*
X25199Y-27033D01*
X25130Y-27033D01*
X25130Y-27033D01*
X24599Y-27033D01*
X24530Y-27033D01*
X24530Y-27033D01*
X24125Y-27033D01*
X24125Y-20679D01*
X24125Y-20679D01*
X24125Y-19908D01*
X24125Y-19358D01*
X24087Y-19267D01*
X24016Y-19196D01*
X23924Y-19158D01*
X23825Y-19158D01*
X23275Y-19158D01*
X23183Y-19196D01*
X23113Y-19266D01*
X23075Y-19358D01*
X23074Y-19457D01*
X23074Y-20007D01*
X23112Y-20099D01*
X23183Y-20170D01*
X23275Y-20208D01*
X23374Y-20208D01*
X23924Y-20208D01*
X24016Y-20170D01*
X24086Y-20100D01*
X24124Y-20008D01*
X24125Y-19908D01*
X24125Y-20679D01*
X24045Y-20486D01*
X23897Y-20338D01*
X23704Y-20258D01*
X23496Y-20258D01*
X23303Y-20338D01*
X23155Y-20485D01*
X23075Y-20678D01*
X23074Y-20887D01*
X23154Y-21080D01*
X23302Y-21228D01*
X23495Y-21308D01*
X23703Y-21308D01*
X23897Y-21228D01*
X24044Y-21081D01*
X24124Y-20888D01*
X24125Y-20679D01*
X24125Y-27033D01*
X23999Y-27033D01*
X23930Y-27033D01*
X23930Y-27033D01*
X23399Y-27033D01*
X23330Y-27033D01*
X23330Y-27033D01*
X22799Y-27033D01*
X22730Y-27033D01*
X22730Y-27033D01*
X22400Y-27033D01*
X22400Y-22164D01*
X22308Y-21944D01*
X22140Y-21775D01*
X21919Y-21683D01*
X21681Y-21683D01*
X21460Y-21774D01*
X21299Y-21934D01*
X21140Y-21775D01*
X21125Y-21768D01*
X21125Y-19579D01*
X21045Y-19386D01*
X20897Y-19238D01*
X20704Y-19158D01*
X20496Y-19158D01*
X20303Y-19238D01*
X20155Y-19385D01*
X20075Y-19578D01*
X20074Y-19787D01*
X20154Y-19980D01*
X20302Y-20128D01*
X20495Y-20208D01*
X20703Y-20208D01*
X20897Y-20128D01*
X21044Y-19981D01*
X21124Y-19788D01*
X21125Y-19579D01*
X21125Y-21768D01*
X21125Y-21768D01*
X21125Y-21008D01*
X21125Y-20458D01*
X21087Y-20367D01*
X21016Y-20296D01*
X20924Y-20258D01*
X20825Y-20258D01*
X20275Y-20258D01*
X20183Y-20296D01*
X20113Y-20366D01*
X20075Y-20458D01*
X20074Y-20557D01*
X20074Y-21107D01*
X20112Y-21199D01*
X20183Y-21270D01*
X20275Y-21308D01*
X20374Y-21308D01*
X20924Y-21308D01*
X21016Y-21270D01*
X21086Y-21200D01*
X21124Y-21108D01*
X21125Y-21008D01*
X21125Y-21768D01*
X20919Y-21683D01*
X20681Y-21683D01*
X20460Y-21774D01*
X20385Y-21849D01*
X20362Y-21792D01*
X20291Y-21721D01*
X20199Y-21683D01*
X20100Y-21683D01*
X19929Y-21683D01*
X19929Y-20759D01*
X19925Y-20670D01*
X19925Y-19579D01*
X19845Y-19386D01*
X19697Y-19238D01*
X19504Y-19158D01*
X19296Y-19158D01*
X19103Y-19238D01*
X18955Y-19385D01*
X18875Y-19578D01*
X18874Y-19787D01*
X18954Y-19980D01*
X19102Y-20128D01*
X19228Y-20180D01*
X19127Y-20222D01*
X19102Y-20315D01*
X19400Y-20612D01*
X19697Y-20315D01*
X19672Y-20222D01*
X19562Y-20184D01*
X19697Y-20128D01*
X19844Y-19981D01*
X19924Y-19788D01*
X19925Y-19579D01*
X19925Y-20670D01*
X19918Y-20550D01*
X19860Y-20410D01*
X19767Y-20386D01*
X19470Y-20683D01*
X19767Y-20980D01*
X19860Y-20956D01*
X19929Y-20759D01*
X19929Y-21683D01*
X19912Y-21683D01*
X19850Y-21745D01*
X19850Y-22233D01*
X19857Y-22233D01*
X19857Y-22333D01*
X19850Y-22333D01*
X19850Y-22820D01*
X19894Y-22865D01*
X19775Y-22983D01*
X19750Y-22983D01*
X19750Y-22820D01*
X19750Y-22333D01*
X19750Y-22233D01*
X19750Y-21745D01*
X19697Y-21693D01*
X19697Y-21051D01*
X19400Y-20754D01*
X19329Y-20824D01*
X19329Y-20683D01*
X19032Y-20386D01*
X18939Y-20410D01*
X18870Y-20607D01*
X18881Y-20816D01*
X18939Y-20956D01*
X19032Y-20980D01*
X19329Y-20683D01*
X19329Y-20824D01*
X19102Y-21051D01*
X19127Y-21144D01*
X19324Y-21213D01*
X19532Y-21202D01*
X19672Y-21144D01*
X19697Y-21051D01*
X19697Y-21693D01*
X19687Y-21683D01*
X19499Y-21683D01*
X19400Y-21683D01*
X19308Y-21721D01*
X19237Y-21792D01*
X19199Y-21883D01*
X19200Y-22170D01*
X19262Y-22233D01*
X19750Y-22233D01*
X19750Y-22333D01*
X19262Y-22333D01*
X19200Y-22395D01*
X19199Y-22682D01*
X19237Y-22774D01*
X19308Y-22845D01*
X19400Y-22883D01*
X19499Y-22883D01*
X19687Y-22883D01*
X19750Y-22820D01*
X19750Y-22983D01*
X18900Y-22983D01*
X18800Y-22983D01*
X18685Y-23006D01*
X18587Y-23071D01*
X18075Y-23583D01*
X17954Y-23583D01*
X17954Y-20665D01*
X17943Y-20446D01*
X17881Y-20295D01*
X17785Y-20268D01*
X17715Y-20338D01*
X17715Y-20197D01*
X17687Y-20102D01*
X17481Y-20028D01*
X17263Y-20039D01*
X17112Y-20102D01*
X17084Y-20197D01*
X17400Y-20512D01*
X17715Y-20197D01*
X17715Y-20338D01*
X17470Y-20583D01*
X17785Y-20898D01*
X17881Y-20871D01*
X17954Y-20665D01*
X17954Y-23583D01*
X17950Y-23583D01*
X17950Y-21833D01*
X17950Y-21233D01*
X17912Y-21142D01*
X17841Y-21071D01*
X17749Y-21033D01*
X17696Y-21033D01*
X17715Y-20969D01*
X17400Y-20654D01*
X17329Y-20724D01*
X17329Y-20583D01*
X17014Y-20268D01*
X16918Y-20295D01*
X16845Y-20501D01*
X16856Y-20720D01*
X16918Y-20871D01*
X17014Y-20898D01*
X17329Y-20583D01*
X17329Y-20724D01*
X17084Y-20969D01*
X17103Y-21033D01*
X17050Y-21033D01*
X16958Y-21071D01*
X16888Y-21141D01*
X16850Y-21233D01*
X16849Y-21332D01*
X16849Y-21932D01*
X16887Y-22024D01*
X16958Y-22095D01*
X17050Y-22133D01*
X17149Y-22133D01*
X17749Y-22133D01*
X17841Y-22095D01*
X17911Y-22025D01*
X17949Y-21933D01*
X17950Y-21833D01*
X17950Y-23583D01*
X17464Y-23583D01*
X17597Y-23528D01*
X17744Y-23381D01*
X17824Y-23188D01*
X17825Y-22979D01*
X17745Y-22786D01*
X17597Y-22638D01*
X17404Y-22558D01*
X17196Y-22558D01*
X17003Y-22638D01*
X16855Y-22785D01*
X16775Y-22978D01*
X16774Y-23187D01*
X16854Y-23380D01*
X17002Y-23528D01*
X17135Y-23583D01*
X16424Y-23583D01*
X16012Y-23171D01*
X15914Y-23106D01*
X15800Y-23083D01*
X15464Y-23083D01*
X15597Y-23028D01*
X15744Y-22881D01*
X15824Y-22688D01*
X15825Y-22479D01*
X15825Y-22479D01*
X15825Y-19808D01*
X15825Y-19357D01*
X15824Y-19258D01*
X15786Y-19166D01*
X15716Y-19096D01*
X15624Y-19058D01*
X15412Y-19058D01*
X15350Y-19120D01*
X15350Y-19533D01*
X15762Y-19533D01*
X15825Y-19470D01*
X15825Y-19357D01*
X15825Y-19808D01*
X15825Y-19695D01*
X15762Y-19633D01*
X15350Y-19633D01*
X15350Y-20045D01*
X15412Y-20108D01*
X15624Y-20108D01*
X15716Y-20070D01*
X15786Y-20000D01*
X15824Y-19908D01*
X15825Y-19808D01*
X15825Y-22479D01*
X15745Y-22286D01*
X15597Y-22138D01*
X15404Y-22058D01*
X15196Y-22058D01*
X15003Y-22138D01*
X14855Y-22285D01*
X14799Y-22418D01*
X14745Y-22286D01*
X14597Y-22138D01*
X14404Y-22058D01*
X14196Y-22058D01*
X14003Y-22138D01*
X13855Y-22285D01*
X13799Y-22418D01*
X13745Y-22286D01*
X13600Y-22140D01*
X13600Y-21907D01*
X14512Y-20995D01*
X14512Y-20995D01*
X14577Y-20898D01*
X14599Y-20783D01*
X14600Y-20783D01*
X14600Y-20025D01*
X14744Y-19881D01*
X14774Y-19808D01*
X14774Y-19808D01*
X14775Y-19908D01*
X14813Y-20000D01*
X14883Y-20070D01*
X14975Y-20108D01*
X15187Y-20108D01*
X15250Y-20045D01*
X15250Y-19633D01*
X15242Y-19633D01*
X15242Y-19533D01*
X15250Y-19533D01*
X15250Y-19120D01*
X15187Y-19058D01*
X14975Y-19058D01*
X14883Y-19096D01*
X14813Y-19166D01*
X14775Y-19258D01*
X14774Y-19357D01*
X14774Y-19358D01*
X14745Y-19286D01*
X14597Y-19138D01*
X14404Y-19058D01*
X14196Y-19058D01*
X14003Y-19138D01*
X13855Y-19285D01*
X13799Y-19418D01*
X13745Y-19286D01*
X13597Y-19138D01*
X13404Y-19058D01*
X13196Y-19058D01*
X13003Y-19138D01*
X12855Y-19285D01*
X12799Y-19418D01*
X12745Y-19286D01*
X12597Y-19138D01*
X12404Y-19058D01*
X12196Y-19058D01*
X12003Y-19138D01*
X11855Y-19285D01*
X11775Y-19478D01*
X11774Y-19687D01*
X11854Y-19880D01*
X12002Y-20028D01*
X12195Y-20108D01*
X12403Y-20108D01*
X12597Y-20028D01*
X12744Y-19881D01*
X12800Y-19748D01*
X12854Y-19880D01*
X13002Y-20028D01*
X13195Y-20108D01*
X13403Y-20108D01*
X13597Y-20028D01*
X13744Y-19881D01*
X13800Y-19748D01*
X13854Y-19880D01*
X14000Y-20026D01*
X14000Y-20659D01*
X13087Y-21571D01*
X13022Y-21668D01*
X13000Y-21783D01*
X13000Y-22141D01*
X12855Y-22285D01*
X12799Y-22418D01*
X12745Y-22286D01*
X12597Y-22138D01*
X12404Y-22058D01*
X12196Y-22058D01*
X12003Y-22138D01*
X11855Y-22285D01*
X11775Y-22478D01*
X11774Y-22687D01*
X11854Y-22880D01*
X12002Y-23028D01*
X12195Y-23108D01*
X12403Y-23108D01*
X12597Y-23028D01*
X12744Y-22881D01*
X12800Y-22748D01*
X12854Y-22880D01*
X13002Y-23028D01*
X13195Y-23108D01*
X13403Y-23108D01*
X13597Y-23028D01*
X13744Y-22881D01*
X13800Y-22748D01*
X13854Y-22880D01*
X13916Y-22942D01*
X12975Y-23883D01*
X12742Y-23883D01*
X12597Y-23738D01*
X12404Y-23658D01*
X12196Y-23658D01*
X12003Y-23738D01*
X11855Y-23885D01*
X11775Y-24078D01*
X11774Y-24287D01*
X11854Y-24480D01*
X12002Y-24628D01*
X12195Y-24708D01*
X12403Y-24708D01*
X12597Y-24628D01*
X12742Y-24483D01*
X13100Y-24483D01*
X13100Y-24483D01*
X13214Y-24460D01*
X13214Y-24460D01*
X13312Y-24395D01*
X14300Y-23407D01*
X14487Y-23595D01*
X14487Y-23595D01*
X14585Y-23660D01*
X14699Y-23683D01*
X14700Y-23683D01*
X15135Y-23683D01*
X15003Y-23738D01*
X14855Y-23885D01*
X14775Y-24078D01*
X14774Y-24287D01*
X14854Y-24480D01*
X15002Y-24628D01*
X15195Y-24708D01*
X15403Y-24708D01*
X15597Y-24628D01*
X15744Y-24481D01*
X15824Y-24288D01*
X15825Y-24079D01*
X15745Y-23886D01*
X15597Y-23738D01*
X15464Y-23683D01*
X15675Y-23683D01*
X16087Y-24095D01*
X16087Y-24095D01*
X16185Y-24160D01*
X16300Y-24183D01*
X18075Y-24183D01*
X18387Y-24495D01*
X18387Y-24495D01*
X18485Y-24560D01*
X18599Y-24583D01*
X18600Y-24583D01*
X19274Y-24583D01*
X19291Y-24622D01*
X19459Y-24791D01*
X19680Y-24883D01*
X19918Y-24883D01*
X20139Y-24792D01*
X20300Y-24631D01*
X20459Y-24791D01*
X20680Y-24883D01*
X20918Y-24883D01*
X21139Y-24792D01*
X21214Y-24717D01*
X21237Y-24774D01*
X21308Y-24845D01*
X21400Y-24883D01*
X21499Y-24883D01*
X21687Y-24883D01*
X21750Y-24820D01*
X21750Y-24333D01*
X21742Y-24333D01*
X21742Y-24233D01*
X21750Y-24233D01*
X21750Y-23745D01*
X21687Y-23683D01*
X21499Y-23683D01*
X21400Y-23683D01*
X21308Y-23721D01*
X21237Y-23792D01*
X21214Y-23849D01*
X21140Y-23775D01*
X20919Y-23683D01*
X20681Y-23683D01*
X20460Y-23774D01*
X20299Y-23934D01*
X20140Y-23775D01*
X19919Y-23683D01*
X19681Y-23683D01*
X19460Y-23774D01*
X19291Y-23943D01*
X19274Y-23983D01*
X18724Y-23983D01*
X18624Y-23883D01*
X18924Y-23583D01*
X19900Y-23583D01*
X19900Y-23583D01*
X20014Y-23560D01*
X20014Y-23560D01*
X20112Y-23495D01*
X20724Y-22883D01*
X20918Y-22883D01*
X21139Y-22792D01*
X21300Y-22631D01*
X21459Y-22791D01*
X21680Y-22883D01*
X21918Y-22883D01*
X22139Y-22792D01*
X22308Y-22623D01*
X22399Y-22403D01*
X22400Y-22164D01*
X22400Y-27033D01*
X22400Y-27033D01*
X22400Y-24682D01*
X22400Y-23883D01*
X22362Y-23792D01*
X22291Y-23721D01*
X22199Y-23683D01*
X22100Y-23683D01*
X21912Y-23683D01*
X21850Y-23745D01*
X21850Y-24233D01*
X22337Y-24233D01*
X22400Y-24170D01*
X22400Y-23883D01*
X22400Y-24682D01*
X22400Y-24395D01*
X22337Y-24333D01*
X21850Y-24333D01*
X21850Y-24820D01*
X21912Y-24883D01*
X22100Y-24883D01*
X22199Y-24883D01*
X22291Y-24845D01*
X22362Y-24774D01*
X22400Y-24682D01*
X22400Y-27033D01*
X22354Y-27033D01*
X22354Y-26165D01*
X22343Y-25946D01*
X22281Y-25795D01*
X22185Y-25768D01*
X22115Y-25838D01*
X22115Y-25697D01*
X22087Y-25602D01*
X21881Y-25528D01*
X21663Y-25539D01*
X21512Y-25602D01*
X21484Y-25697D01*
X21800Y-26012D01*
X22115Y-25697D01*
X22115Y-25838D01*
X21870Y-26083D01*
X22185Y-26398D01*
X22281Y-26371D01*
X22354Y-26165D01*
X22354Y-27033D01*
X22199Y-27033D01*
X22130Y-27033D01*
X22130Y-27033D01*
X22115Y-27033D01*
X22115Y-26469D01*
X21800Y-26154D01*
X21729Y-26224D01*
X21729Y-26083D01*
X21414Y-25768D01*
X21318Y-25795D01*
X21299Y-25850D01*
X21266Y-25772D01*
X21111Y-25617D01*
X20909Y-25533D01*
X20691Y-25533D01*
X20488Y-25616D01*
X20334Y-25771D01*
X20300Y-25853D01*
X20266Y-25772D01*
X20111Y-25617D01*
X19909Y-25533D01*
X19691Y-25533D01*
X19488Y-25616D01*
X19350Y-25755D01*
X19350Y-25733D01*
X19312Y-25642D01*
X19241Y-25571D01*
X19149Y-25533D01*
X19050Y-25533D01*
X18450Y-25533D01*
X18358Y-25571D01*
X18288Y-25641D01*
X18250Y-25733D01*
X18249Y-25832D01*
X18249Y-26432D01*
X18287Y-26524D01*
X18358Y-26595D01*
X18450Y-26633D01*
X18549Y-26633D01*
X19149Y-26633D01*
X19241Y-26595D01*
X19311Y-26525D01*
X19349Y-26433D01*
X19349Y-26411D01*
X19488Y-26549D01*
X19690Y-26633D01*
X19908Y-26633D01*
X20111Y-26550D01*
X20265Y-26395D01*
X20299Y-26313D01*
X20333Y-26394D01*
X20488Y-26549D01*
X20690Y-26633D01*
X20908Y-26633D01*
X21111Y-26550D01*
X21265Y-26395D01*
X21297Y-26319D01*
X21318Y-26371D01*
X21414Y-26398D01*
X21729Y-26083D01*
X21729Y-26224D01*
X21484Y-26469D01*
X21512Y-26564D01*
X21718Y-26638D01*
X21936Y-26627D01*
X22087Y-26564D01*
X22115Y-26469D01*
X22115Y-27033D01*
X21599Y-27033D01*
X21530Y-27033D01*
X21530Y-27033D01*
X20999Y-27033D01*
X20930Y-27033D01*
X20930Y-27033D01*
X20399Y-27033D01*
X20330Y-27033D01*
X20330Y-27033D01*
X19799Y-27033D01*
X19730Y-27033D01*
X19730Y-27033D01*
X19199Y-27033D01*
X19130Y-27033D01*
X19130Y-27033D01*
X18599Y-27033D01*
X18530Y-27033D01*
X18530Y-27033D01*
X17999Y-27033D01*
X17930Y-27033D01*
X17930Y-27033D01*
X17825Y-27033D01*
X17825Y-26308D01*
X17825Y-25758D01*
X17787Y-25667D01*
X17716Y-25596D01*
X17624Y-25558D01*
X17525Y-25558D01*
X16975Y-25558D01*
X16883Y-25596D01*
X16813Y-25666D01*
X16775Y-25758D01*
X16774Y-25857D01*
X16774Y-26407D01*
X16812Y-26499D01*
X16883Y-26570D01*
X16975Y-26608D01*
X17074Y-26608D01*
X17624Y-26608D01*
X17716Y-26570D01*
X17786Y-26500D01*
X17824Y-26408D01*
X17825Y-26308D01*
X17825Y-27033D01*
X17399Y-27033D01*
X17330Y-27033D01*
X17330Y-27033D01*
X16799Y-27033D01*
X16730Y-27033D01*
X16730Y-27033D01*
X16729Y-27033D01*
X16729Y-25159D01*
X16718Y-24950D01*
X16660Y-24810D01*
X16567Y-24786D01*
X16497Y-24857D01*
X16497Y-24715D01*
X16472Y-24622D01*
X16275Y-24553D01*
X16067Y-24564D01*
X15927Y-24622D01*
X15902Y-24715D01*
X16200Y-25012D01*
X16497Y-24715D01*
X16497Y-24857D01*
X16270Y-25083D01*
X16567Y-25380D01*
X16660Y-25356D01*
X16729Y-25159D01*
X16729Y-27033D01*
X16725Y-27033D01*
X16725Y-25979D01*
X16645Y-25786D01*
X16497Y-25638D01*
X16371Y-25586D01*
X16472Y-25544D01*
X16497Y-25451D01*
X16200Y-25154D01*
X16129Y-25224D01*
X16129Y-25083D01*
X15832Y-24786D01*
X15739Y-24810D01*
X15670Y-25007D01*
X15681Y-25216D01*
X15739Y-25356D01*
X15832Y-25380D01*
X16129Y-25083D01*
X16129Y-25224D01*
X15902Y-25451D01*
X15927Y-25544D01*
X16037Y-25582D01*
X15903Y-25638D01*
X15755Y-25785D01*
X15675Y-25978D01*
X15674Y-26187D01*
X15754Y-26380D01*
X15902Y-26528D01*
X16095Y-26608D01*
X16303Y-26608D01*
X16497Y-26528D01*
X16644Y-26381D01*
X16724Y-26188D01*
X16725Y-25979D01*
X16725Y-27033D01*
X16199Y-27033D01*
X16130Y-27033D01*
X16130Y-27033D01*
X15599Y-27033D01*
X15530Y-27033D01*
X15530Y-27033D01*
X15000Y-27033D01*
X15000Y-26383D01*
X15000Y-25683D01*
X14962Y-25592D01*
X14891Y-25521D01*
X14799Y-25483D01*
X14700Y-25483D01*
X14000Y-25483D01*
X13908Y-25521D01*
X13838Y-25591D01*
X13818Y-25638D01*
X13796Y-25616D01*
X13751Y-25661D01*
X13717Y-25560D01*
X13493Y-25478D01*
X13255Y-25489D01*
X13082Y-25560D01*
X13048Y-25661D01*
X13400Y-26012D01*
X13405Y-26007D01*
X13476Y-26077D01*
X13470Y-26083D01*
X13476Y-26089D01*
X13405Y-26159D01*
X13400Y-26154D01*
X13329Y-26224D01*
X13329Y-26083D01*
X12977Y-25732D01*
X12912Y-25753D01*
X12908Y-25744D01*
X12740Y-25575D01*
X12519Y-25483D01*
X12281Y-25483D01*
X12060Y-25574D01*
X11891Y-25743D01*
X11800Y-25963D01*
X11799Y-26202D01*
X11891Y-26422D01*
X12059Y-26591D01*
X12280Y-26683D01*
X12518Y-26683D01*
X12739Y-26592D01*
X12908Y-26423D01*
X12912Y-26413D01*
X12977Y-26434D01*
X13329Y-26083D01*
X13329Y-26224D01*
X13048Y-26505D01*
X13082Y-26606D01*
X13306Y-26687D01*
X13544Y-26677D01*
X13717Y-26606D01*
X13751Y-26505D01*
X13751Y-26505D01*
X13796Y-26550D01*
X13818Y-26528D01*
X13837Y-26574D01*
X13908Y-26645D01*
X14000Y-26683D01*
X14099Y-26683D01*
X14799Y-26683D01*
X14891Y-26645D01*
X14961Y-26575D01*
X14999Y-26483D01*
X15000Y-26383D01*
X15000Y-27033D01*
X14999Y-27033D01*
X14930Y-27033D01*
X14930Y-27033D01*
X14399Y-27033D01*
X14330Y-27033D01*
X14330Y-27033D01*
X13799Y-27033D01*
X13751Y-27033D01*
X13730Y-27033D01*
X13730Y-27033D01*
X13199Y-27033D01*
X13130Y-27033D01*
X13130Y-27033D01*
X12599Y-27033D01*
X12530Y-27033D01*
X12530Y-27033D01*
X11999Y-27033D01*
X11930Y-27033D01*
X11930Y-27033D01*
X11429Y-27033D01*
X11429Y-23659D01*
X11425Y-23570D01*
X11425Y-22479D01*
X11345Y-22286D01*
X11197Y-22138D01*
X11004Y-22058D01*
X10796Y-22058D01*
X10750Y-22077D01*
X10750Y-19275D01*
X10590Y-18889D01*
X10295Y-18593D01*
X9909Y-18433D01*
X9492Y-18433D01*
X9106Y-18592D01*
X8810Y-18887D01*
X8650Y-19273D01*
X8649Y-19691D01*
X8809Y-20077D01*
X9104Y-20373D01*
X9490Y-20533D01*
X9907Y-20533D01*
X10294Y-20374D01*
X10589Y-20079D01*
X10749Y-19693D01*
X10750Y-19275D01*
X10750Y-22077D01*
X10725Y-22087D01*
X10725Y-21079D01*
X10645Y-20886D01*
X10497Y-20738D01*
X10304Y-20658D01*
X10096Y-20658D01*
X9903Y-20738D01*
X9755Y-20885D01*
X9702Y-21012D01*
X9660Y-20910D01*
X9567Y-20886D01*
X9497Y-20957D01*
X9497Y-20815D01*
X9472Y-20722D01*
X9275Y-20653D01*
X9067Y-20664D01*
X8927Y-20722D01*
X8902Y-20815D01*
X9200Y-21112D01*
X9497Y-20815D01*
X9497Y-20957D01*
X9270Y-21183D01*
X9567Y-21480D01*
X9660Y-21456D01*
X9699Y-21346D01*
X9754Y-21480D01*
X9902Y-21628D01*
X10095Y-21708D01*
X10303Y-21708D01*
X10497Y-21628D01*
X10644Y-21481D01*
X10724Y-21288D01*
X10725Y-21079D01*
X10725Y-22087D01*
X10603Y-22138D01*
X10455Y-22285D01*
X10375Y-22478D01*
X10374Y-22687D01*
X10454Y-22880D01*
X10602Y-23028D01*
X10728Y-23080D01*
X10627Y-23122D01*
X10602Y-23215D01*
X10900Y-23512D01*
X11197Y-23215D01*
X11172Y-23122D01*
X11062Y-23084D01*
X11197Y-23028D01*
X11344Y-22881D01*
X11424Y-22688D01*
X11425Y-22479D01*
X11425Y-23570D01*
X11418Y-23450D01*
X11360Y-23310D01*
X11267Y-23286D01*
X10970Y-23583D01*
X11267Y-23880D01*
X11360Y-23856D01*
X11429Y-23659D01*
X11429Y-27033D01*
X11399Y-27033D01*
X11330Y-27033D01*
X11330Y-27033D01*
X11197Y-27033D01*
X11197Y-23951D01*
X10900Y-23654D01*
X10829Y-23724D01*
X10829Y-23583D01*
X10532Y-23286D01*
X10439Y-23310D01*
X10370Y-23507D01*
X10381Y-23716D01*
X10439Y-23856D01*
X10532Y-23880D01*
X10829Y-23583D01*
X10829Y-23724D01*
X10602Y-23951D01*
X10627Y-24044D01*
X10824Y-24113D01*
X11032Y-24102D01*
X11172Y-24044D01*
X11197Y-23951D01*
X11197Y-27033D01*
X10799Y-27033D01*
X10750Y-27033D01*
X10750Y-25275D01*
X10590Y-24889D01*
X10295Y-24593D01*
X9909Y-24433D01*
X9754Y-24433D01*
X9754Y-23665D01*
X9750Y-23570D01*
X9750Y-22833D01*
X9750Y-22233D01*
X9712Y-22142D01*
X9641Y-22071D01*
X9549Y-22033D01*
X9497Y-22033D01*
X9497Y-21551D01*
X9200Y-21254D01*
X9129Y-21324D01*
X9129Y-21183D01*
X8832Y-20886D01*
X8739Y-20910D01*
X8670Y-21107D01*
X8681Y-21316D01*
X8739Y-21456D01*
X8832Y-21480D01*
X9129Y-21183D01*
X9129Y-21324D01*
X8902Y-21551D01*
X8927Y-21644D01*
X9124Y-21713D01*
X9332Y-21702D01*
X9472Y-21644D01*
X9497Y-21551D01*
X9497Y-22033D01*
X9450Y-22033D01*
X8850Y-22033D01*
X8758Y-22071D01*
X8688Y-22141D01*
X8650Y-22233D01*
X8649Y-22332D01*
X8649Y-22932D01*
X8687Y-23024D01*
X8758Y-23095D01*
X8850Y-23133D01*
X8903Y-23133D01*
X8884Y-23197D01*
X9200Y-23512D01*
X9515Y-23197D01*
X9496Y-23133D01*
X9549Y-23133D01*
X9641Y-23095D01*
X9711Y-23025D01*
X9749Y-22933D01*
X9750Y-22833D01*
X9750Y-23570D01*
X9743Y-23446D01*
X9681Y-23295D01*
X9585Y-23268D01*
X9270Y-23583D01*
X9585Y-23898D01*
X9681Y-23871D01*
X9754Y-23665D01*
X9754Y-24433D01*
X9515Y-24433D01*
X9515Y-23969D01*
X9200Y-23654D01*
X9129Y-23724D01*
X9129Y-23583D01*
X8814Y-23268D01*
X8718Y-23295D01*
X8645Y-23501D01*
X8656Y-23720D01*
X8718Y-23871D01*
X8814Y-23898D01*
X9129Y-23583D01*
X9129Y-23724D01*
X8884Y-23969D01*
X8912Y-24064D01*
X9118Y-24138D01*
X9336Y-24127D01*
X9487Y-24064D01*
X9515Y-23969D01*
X9515Y-24433D01*
X9492Y-24433D01*
X9106Y-24592D01*
X8810Y-24887D01*
X8650Y-25273D01*
X8649Y-25691D01*
X8809Y-26077D01*
X9104Y-26373D01*
X9490Y-26533D01*
X9907Y-26533D01*
X10294Y-26374D01*
X10589Y-26079D01*
X10749Y-25693D01*
X10750Y-25275D01*
X10750Y-27033D01*
X10730Y-27033D01*
X10730Y-27033D01*
X10199Y-27033D01*
X10130Y-27033D01*
X10130Y-27033D01*
X9599Y-27033D01*
X9530Y-27033D01*
X9530Y-27033D01*
X8999Y-27033D01*
X8930Y-27033D01*
X8930Y-27033D01*
X8399Y-27033D01*
X8330Y-27033D01*
X8330Y-27033D01*
X8250Y-27033D01*
X8250Y-17953D01*
X27130Y-17953D01*
X27130Y-27033D01*
X27130Y-27033D01*
G37*
G54D18*
X27130Y-27033D02*
X26999Y-27033D01*
X26930Y-27033D01*
X26930Y-27033D01*
X26650Y-27033D01*
X26650Y-25275D01*
X26490Y-24889D01*
X26195Y-24593D01*
X25809Y-24433D01*
X25800Y-24433D01*
X25800Y-21264D01*
X25708Y-21044D01*
X25540Y-20875D01*
X25495Y-20856D01*
X25511Y-20850D01*
X25665Y-20695D01*
X25749Y-20493D01*
X25750Y-20274D01*
X25666Y-20072D01*
X25511Y-19917D01*
X25495Y-19910D01*
X25539Y-19892D01*
X25708Y-19723D01*
X25799Y-19503D01*
X25800Y-19264D01*
X25708Y-19044D01*
X25540Y-18875D01*
X25319Y-18783D01*
X25081Y-18783D01*
X24860Y-18874D01*
X24691Y-19043D01*
X24600Y-19263D01*
X24599Y-19502D01*
X24691Y-19722D01*
X24859Y-19891D01*
X24904Y-19910D01*
X24888Y-19916D01*
X24734Y-20071D01*
X24650Y-20273D01*
X24649Y-20492D01*
X24733Y-20694D01*
X24888Y-20849D01*
X24904Y-20856D01*
X24860Y-20874D01*
X24691Y-21043D01*
X24600Y-21263D01*
X24599Y-21502D01*
X24691Y-21722D01*
X24859Y-21891D01*
X24904Y-21910D01*
X24888Y-21916D01*
X24734Y-22071D01*
X24650Y-22273D01*
X24649Y-22492D01*
X24733Y-22694D01*
X24822Y-22783D01*
X24800Y-22783D01*
X24708Y-22821D01*
X24638Y-22891D01*
X24600Y-22983D01*
X24599Y-23082D01*
X24599Y-23782D01*
X24637Y-23874D01*
X24708Y-23945D01*
X24800Y-23983D01*
X24899Y-23983D01*
X25599Y-23983D01*
X25691Y-23945D01*
X25761Y-23875D01*
X25799Y-23783D01*
X25800Y-23683D01*
X25800Y-22983D01*
X25762Y-22892D01*
X25691Y-22821D01*
X25599Y-22783D01*
X25577Y-22783D01*
X25665Y-22695D01*
X25749Y-22493D01*
X25750Y-22274D01*
X25666Y-22072D01*
X25511Y-21917D01*
X25495Y-21910D01*
X25539Y-21892D01*
X25708Y-21723D01*
X25799Y-21503D01*
X25800Y-21264D01*
X25800Y-24433D01*
X25392Y-24433D01*
X25006Y-24592D01*
X24710Y-24887D01*
X24550Y-25273D01*
X24549Y-25691D01*
X24709Y-26077D01*
X25004Y-26373D01*
X25390Y-26533D01*
X25807Y-26533D01*
X26194Y-26374D01*
X26489Y-26079D01*
X26649Y-25693D01*
X26650Y-25275D01*
X26650Y-27033D01*
X26399Y-27033D01*
X26330Y-27033D01*
X26330Y-27033D01*
X25799Y-27033D01*
X25730Y-27033D01*
X25730Y-27033D01*
X25199Y-27033D01*
X25130Y-27033D01*
X25130Y-27033D01*
X24599Y-27033D01*
X24530Y-27033D01*
X24530Y-27033D01*
X24125Y-27033D01*
X24125Y-20679D01*
X24125Y-20679D01*
X24125Y-19908D01*
X24125Y-19358D01*
X24087Y-19267D01*
X24016Y-19196D01*
X23924Y-19158D01*
X23825Y-19158D01*
X23275Y-19158D01*
X23183Y-19196D01*
X23113Y-19266D01*
X23075Y-19358D01*
X23074Y-19457D01*
X23074Y-20007D01*
X23112Y-20099D01*
X23183Y-20170D01*
X23275Y-20208D01*
X23374Y-20208D01*
X23924Y-20208D01*
X24016Y-20170D01*
X24086Y-20100D01*
X24124Y-20008D01*
X24125Y-19908D01*
X24125Y-20679D01*
X24045Y-20486D01*
X23897Y-20338D01*
X23704Y-20258D01*
X23496Y-20258D01*
X23303Y-20338D01*
X23155Y-20485D01*
X23075Y-20678D01*
X23074Y-20887D01*
X23154Y-21080D01*
X23302Y-21228D01*
X23495Y-21308D01*
X23703Y-21308D01*
X23897Y-21228D01*
X24044Y-21081D01*
X24124Y-20888D01*
X24125Y-20679D01*
X24125Y-27033D01*
X23999Y-27033D01*
X23930Y-27033D01*
X23930Y-27033D01*
X23399Y-27033D01*
X23330Y-27033D01*
X23330Y-27033D01*
X22799Y-27033D01*
X22730Y-27033D01*
X22730Y-27033D01*
X22400Y-27033D01*
X22400Y-22164D01*
X22308Y-21944D01*
X22140Y-21775D01*
X21919Y-21683D01*
X21681Y-21683D01*
X21460Y-21774D01*
X21299Y-21934D01*
X21140Y-21775D01*
X21125Y-21768D01*
X21125Y-19579D01*
X21045Y-19386D01*
X20897Y-19238D01*
X20704Y-19158D01*
X20496Y-19158D01*
X20303Y-19238D01*
X20155Y-19385D01*
X20075Y-19578D01*
X20074Y-19787D01*
X20154Y-19980D01*
X20302Y-20128D01*
X20495Y-20208D01*
X20703Y-20208D01*
X20897Y-20128D01*
X21044Y-19981D01*
X21124Y-19788D01*
X21125Y-19579D01*
X21125Y-21768D01*
X21125Y-21768D01*
X21125Y-21008D01*
X21125Y-20458D01*
X21087Y-20367D01*
X21016Y-20296D01*
X20924Y-20258D01*
X20825Y-20258D01*
X20275Y-20258D01*
X20183Y-20296D01*
X20113Y-20366D01*
X20075Y-20458D01*
X20074Y-20557D01*
X20074Y-21107D01*
X20112Y-21199D01*
X20183Y-21270D01*
X20275Y-21308D01*
X20374Y-21308D01*
X20924Y-21308D01*
X21016Y-21270D01*
X21086Y-21200D01*
X21124Y-21108D01*
X21125Y-21008D01*
X21125Y-21768D01*
X20919Y-21683D01*
X20681Y-21683D01*
X20460Y-21774D01*
X20385Y-21849D01*
X20362Y-21792D01*
X20291Y-21721D01*
X20199Y-21683D01*
X20100Y-21683D01*
X19929Y-21683D01*
X19929Y-20759D01*
X19925Y-20670D01*
X19925Y-19579D01*
X19845Y-19386D01*
X19697Y-19238D01*
X19504Y-19158D01*
X19296Y-19158D01*
X19103Y-19238D01*
X18955Y-19385D01*
X18875Y-19578D01*
X18874Y-19787D01*
X18954Y-19980D01*
X19102Y-20128D01*
X19228Y-20180D01*
X19127Y-20222D01*
X19102Y-20315D01*
X19400Y-20612D01*
X19697Y-20315D01*
X19672Y-20222D01*
X19562Y-20184D01*
X19697Y-20128D01*
X19844Y-19981D01*
X19924Y-19788D01*
X19925Y-19579D01*
X19925Y-20670D01*
X19918Y-20550D01*
X19860Y-20410D01*
X19767Y-20386D01*
X19470Y-20683D01*
X19767Y-20980D01*
X19860Y-20956D01*
X19929Y-20759D01*
X19929Y-21683D01*
X19912Y-21683D01*
X19850Y-21745D01*
X19850Y-22233D01*
X19857Y-22233D01*
X19857Y-22333D01*
X19850Y-22333D01*
X19850Y-22820D01*
X19894Y-22865D01*
X19775Y-22983D01*
X19750Y-22983D01*
X19750Y-22820D01*
X19750Y-22333D01*
X19750Y-22233D01*
X19750Y-21745D01*
X19697Y-21693D01*
X19697Y-21051D01*
X19400Y-20754D01*
X19329Y-20824D01*
X19329Y-20683D01*
X19032Y-20386D01*
X18939Y-20410D01*
X18870Y-20607D01*
X18881Y-20816D01*
X18939Y-20956D01*
X19032Y-20980D01*
X19329Y-20683D01*
X19329Y-20824D01*
X19102Y-21051D01*
X19127Y-21144D01*
X19324Y-21213D01*
X19532Y-21202D01*
X19672Y-21144D01*
X19697Y-21051D01*
X19697Y-21693D01*
X19687Y-21683D01*
X19499Y-21683D01*
X19400Y-21683D01*
X19308Y-21721D01*
X19237Y-21792D01*
X19199Y-21883D01*
X19200Y-22170D01*
X19262Y-22233D01*
X19750Y-22233D01*
X19750Y-22333D01*
X19262Y-22333D01*
X19200Y-22395D01*
X19199Y-22682D01*
X19237Y-22774D01*
X19308Y-22845D01*
X19400Y-22883D01*
X19499Y-22883D01*
X19687Y-22883D01*
X19750Y-22820D01*
X19750Y-22983D01*
X18900Y-22983D01*
X18800Y-22983D01*
X18685Y-23006D01*
X18587Y-23071D01*
X18075Y-23583D01*
X17954Y-23583D01*
X17954Y-20665D01*
X17943Y-20446D01*
X17881Y-20295D01*
X17785Y-20268D01*
X17715Y-20338D01*
X17715Y-20197D01*
X17687Y-20102D01*
X17481Y-20028D01*
X17263Y-20039D01*
X17112Y-20102D01*
X17084Y-20197D01*
X17400Y-20512D01*
X17715Y-20197D01*
X17715Y-20338D01*
X17470Y-20583D01*
X17785Y-20898D01*
X17881Y-20871D01*
X17954Y-20665D01*
X17954Y-23583D01*
X17950Y-23583D01*
X17950Y-21833D01*
X17950Y-21233D01*
X17912Y-21142D01*
X17841Y-21071D01*
X17749Y-21033D01*
X17696Y-21033D01*
X17715Y-20969D01*
X17400Y-20654D01*
X17329Y-20724D01*
X17329Y-20583D01*
X17014Y-20268D01*
X16918Y-20295D01*
X16845Y-20501D01*
X16856Y-20720D01*
X16918Y-20871D01*
X17014Y-20898D01*
X17329Y-20583D01*
X17329Y-20724D01*
X17084Y-20969D01*
X17103Y-21033D01*
X17050Y-21033D01*
X16958Y-21071D01*
X16888Y-21141D01*
X16850Y-21233D01*
X16849Y-21332D01*
X16849Y-21932D01*
X16887Y-22024D01*
X16958Y-22095D01*
X17050Y-22133D01*
X17149Y-22133D01*
X17749Y-22133D01*
X17841Y-22095D01*
X17911Y-22025D01*
X17949Y-21933D01*
X17950Y-21833D01*
X17950Y-23583D01*
X17464Y-23583D01*
X17597Y-23528D01*
X17744Y-23381D01*
X17824Y-23188D01*
X17825Y-22979D01*
X17745Y-22786D01*
X17597Y-22638D01*
X17404Y-22558D01*
X17196Y-22558D01*
X17003Y-22638D01*
X16855Y-22785D01*
X16775Y-22978D01*
X16774Y-23187D01*
X16854Y-23380D01*
X17002Y-23528D01*
X17135Y-23583D01*
X16424Y-23583D01*
X16012Y-23171D01*
X15914Y-23106D01*
X15800Y-23083D01*
X15464Y-23083D01*
X15597Y-23028D01*
X15744Y-22881D01*
X15824Y-22688D01*
X15825Y-22479D01*
X15825Y-22479D01*
X15825Y-19808D01*
X15825Y-19357D01*
X15824Y-19258D01*
X15786Y-19166D01*
X15716Y-19096D01*
X15624Y-19058D01*
X15412Y-19058D01*
X15350Y-19120D01*
X15350Y-19533D01*
X15762Y-19533D01*
X15825Y-19470D01*
X15825Y-19357D01*
X15825Y-19808D01*
X15825Y-19695D01*
X15762Y-19633D01*
X15350Y-19633D01*
X15350Y-20045D01*
X15412Y-20108D01*
X15624Y-20108D01*
X15716Y-20070D01*
X15786Y-20000D01*
X15824Y-19908D01*
X15825Y-19808D01*
X15825Y-22479D01*
X15745Y-22286D01*
X15597Y-22138D01*
X15404Y-22058D01*
X15196Y-22058D01*
X15003Y-22138D01*
X14855Y-22285D01*
X14799Y-22418D01*
X14745Y-22286D01*
X14597Y-22138D01*
X14404Y-22058D01*
X14196Y-22058D01*
X14003Y-22138D01*
X13855Y-22285D01*
X13799Y-22418D01*
X13745Y-22286D01*
X13600Y-22140D01*
X13600Y-21907D01*
X14512Y-20995D01*
X14512Y-20995D01*
X14577Y-20898D01*
X14599Y-20783D01*
X14600Y-20783D01*
X14600Y-20025D01*
X14744Y-19881D01*
X14774Y-19808D01*
X14774Y-19808D01*
X14775Y-19908D01*
X14813Y-20000D01*
X14883Y-20070D01*
X14975Y-20108D01*
X15187Y-20108D01*
X15250Y-20045D01*
X15250Y-19633D01*
X15242Y-19633D01*
X15242Y-19533D01*
X15250Y-19533D01*
X15250Y-19120D01*
X15187Y-19058D01*
X14975Y-19058D01*
X14883Y-19096D01*
X14813Y-19166D01*
X14775Y-19258D01*
X14774Y-19357D01*
X14774Y-19358D01*
X14745Y-19286D01*
X14597Y-19138D01*
X14404Y-19058D01*
X14196Y-19058D01*
X14003Y-19138D01*
X13855Y-19285D01*
X13799Y-19418D01*
X13745Y-19286D01*
X13597Y-19138D01*
X13404Y-19058D01*
X13196Y-19058D01*
X13003Y-19138D01*
X12855Y-19285D01*
X12799Y-19418D01*
X12745Y-19286D01*
X12597Y-19138D01*
X12404Y-19058D01*
X12196Y-19058D01*
X12003Y-19138D01*
X11855Y-19285D01*
X11775Y-19478D01*
X11774Y-19687D01*
X11854Y-19880D01*
X12002Y-20028D01*
X12195Y-20108D01*
X12403Y-20108D01*
X12597Y-20028D01*
X12744Y-19881D01*
X12800Y-19748D01*
X12854Y-19880D01*
X13002Y-20028D01*
X13195Y-20108D01*
X13403Y-20108D01*
X13597Y-20028D01*
X13744Y-19881D01*
X13800Y-19748D01*
X13854Y-19880D01*
X14000Y-20026D01*
X14000Y-20659D01*
X13087Y-21571D01*
X13022Y-21668D01*
X13000Y-21783D01*
X13000Y-22141D01*
X12855Y-22285D01*
X12799Y-22418D01*
X12745Y-22286D01*
X12597Y-22138D01*
X12404Y-22058D01*
X12196Y-22058D01*
X12003Y-22138D01*
X11855Y-22285D01*
X11775Y-22478D01*
X11774Y-22687D01*
X11854Y-22880D01*
X12002Y-23028D01*
X12195Y-23108D01*
X12403Y-23108D01*
X12597Y-23028D01*
X12744Y-22881D01*
X12800Y-22748D01*
X12854Y-22880D01*
X13002Y-23028D01*
X13195Y-23108D01*
X13403Y-23108D01*
X13597Y-23028D01*
X13744Y-22881D01*
X13800Y-22748D01*
X13854Y-22880D01*
X13916Y-22942D01*
X12975Y-23883D01*
X12742Y-23883D01*
X12597Y-23738D01*
X12404Y-23658D01*
X12196Y-23658D01*
X12003Y-23738D01*
X11855Y-23885D01*
X11775Y-24078D01*
X11774Y-24287D01*
X11854Y-24480D01*
X12002Y-24628D01*
X12195Y-24708D01*
X12403Y-24708D01*
X12597Y-24628D01*
X12742Y-24483D01*
X13100Y-24483D01*
X13100Y-24483D01*
X13214Y-24460D01*
X13214Y-24460D01*
X13312Y-24395D01*
X14300Y-23407D01*
X14487Y-23595D01*
X14487Y-23595D01*
X14585Y-23660D01*
X14699Y-23683D01*
X14700Y-23683D01*
X15135Y-23683D01*
X15003Y-23738D01*
X14855Y-23885D01*
X14775Y-24078D01*
X14774Y-24287D01*
X14854Y-24480D01*
X15002Y-24628D01*
X15195Y-24708D01*
X15403Y-24708D01*
X15597Y-24628D01*
X15744Y-24481D01*
X15824Y-24288D01*
X15825Y-24079D01*
X15745Y-23886D01*
X15597Y-23738D01*
X15464Y-23683D01*
X15675Y-23683D01*
X16087Y-24095D01*
X16087Y-24095D01*
X16185Y-24160D01*
X16300Y-24183D01*
X18075Y-24183D01*
X18387Y-24495D01*
X18387Y-24495D01*
X18485Y-24560D01*
X18599Y-24583D01*
X18600Y-24583D01*
X19274Y-24583D01*
X19291Y-24622D01*
X19459Y-24791D01*
X19680Y-24883D01*
X19918Y-24883D01*
X20139Y-24792D01*
X20300Y-24631D01*
X20459Y-24791D01*
X20680Y-24883D01*
X20918Y-24883D01*
X21139Y-24792D01*
X21214Y-24717D01*
X21237Y-24774D01*
X21308Y-24845D01*
X21400Y-24883D01*
X21499Y-24883D01*
X21687Y-24883D01*
X21750Y-24820D01*
X21750Y-24333D01*
X21742Y-24333D01*
X21742Y-24233D01*
X21750Y-24233D01*
X21750Y-23745D01*
X21687Y-23683D01*
X21499Y-23683D01*
X21400Y-23683D01*
X21308Y-23721D01*
X21237Y-23792D01*
X21214Y-23849D01*
X21140Y-23775D01*
X20919Y-23683D01*
X20681Y-23683D01*
X20460Y-23774D01*
X20299Y-23934D01*
X20140Y-23775D01*
X19919Y-23683D01*
X19681Y-23683D01*
X19460Y-23774D01*
X19291Y-23943D01*
X19274Y-23983D01*
X18724Y-23983D01*
X18624Y-23883D01*
X18924Y-23583D01*
X19900Y-23583D01*
X19900Y-23583D01*
X20014Y-23560D01*
X20014Y-23560D01*
X20112Y-23495D01*
X20724Y-22883D01*
X20918Y-22883D01*
X21139Y-22792D01*
X21300Y-22631D01*
X21459Y-22791D01*
X21680Y-22883D01*
X21918Y-22883D01*
X22139Y-22792D01*
X22308Y-22623D01*
X22399Y-22403D01*
X22400Y-22164D01*
X22400Y-27033D01*
X22400Y-27033D01*
X22400Y-24682D01*
X22400Y-23883D01*
X22362Y-23792D01*
X22291Y-23721D01*
X22199Y-23683D01*
X22100Y-23683D01*
X21912Y-23683D01*
X21850Y-23745D01*
X21850Y-24233D01*
X22337Y-24233D01*
X22400Y-24170D01*
X22400Y-23883D01*
X22400Y-24682D01*
X22400Y-24395D01*
X22337Y-24333D01*
X21850Y-24333D01*
X21850Y-24820D01*
X21912Y-24883D01*
X22100Y-24883D01*
X22199Y-24883D01*
X22291Y-24845D01*
X22362Y-24774D01*
X22400Y-24682D01*
X22400Y-27033D01*
X22354Y-27033D01*
X22354Y-26165D01*
X22343Y-25946D01*
X22281Y-25795D01*
X22185Y-25768D01*
X22115Y-25838D01*
X22115Y-25697D01*
X22087Y-25602D01*
X21881Y-25528D01*
X21663Y-25539D01*
X21512Y-25602D01*
X21484Y-25697D01*
X21800Y-26012D01*
X22115Y-25697D01*
X22115Y-25838D01*
X21870Y-26083D01*
X22185Y-26398D01*
X22281Y-26371D01*
X22354Y-26165D01*
X22354Y-27033D01*
X22199Y-27033D01*
X22130Y-27033D01*
X22130Y-27033D01*
X22115Y-27033D01*
X22115Y-26469D01*
X21800Y-26154D01*
X21729Y-26224D01*
X21729Y-26083D01*
X21414Y-25768D01*
X21318Y-25795D01*
X21299Y-25850D01*
X21266Y-25772D01*
X21111Y-25617D01*
X20909Y-25533D01*
X20691Y-25533D01*
X20488Y-25616D01*
X20334Y-25771D01*
X20300Y-25853D01*
X20266Y-25772D01*
X20111Y-25617D01*
X19909Y-25533D01*
X19691Y-25533D01*
X19488Y-25616D01*
X19350Y-25755D01*
X19350Y-25733D01*
X19312Y-25642D01*
X19241Y-25571D01*
X19149Y-25533D01*
X19050Y-25533D01*
X18450Y-25533D01*
X18358Y-25571D01*
X18288Y-25641D01*
X18250Y-25733D01*
X18249Y-25832D01*
X18249Y-26432D01*
X18287Y-26524D01*
X18358Y-26595D01*
X18450Y-26633D01*
X18549Y-26633D01*
X19149Y-26633D01*
X19241Y-26595D01*
X19311Y-26525D01*
X19349Y-26433D01*
X19349Y-26411D01*
X19488Y-26549D01*
X19690Y-26633D01*
X19908Y-26633D01*
X20111Y-26550D01*
X20265Y-26395D01*
X20299Y-26313D01*
X20333Y-26394D01*
X20488Y-26549D01*
X20690Y-26633D01*
X20908Y-26633D01*
X21111Y-26550D01*
X21265Y-26395D01*
X21297Y-26319D01*
X21318Y-26371D01*
X21414Y-26398D01*
X21729Y-26083D01*
X21729Y-26224D01*
X21484Y-26469D01*
X21512Y-26564D01*
X21718Y-26638D01*
X21936Y-26627D01*
X22087Y-26564D01*
X22115Y-26469D01*
X22115Y-27033D01*
X21599Y-27033D01*
X21530Y-27033D01*
X21530Y-27033D01*
X20999Y-27033D01*
X20930Y-27033D01*
X20930Y-27033D01*
X20399Y-27033D01*
X20330Y-27033D01*
X20330Y-27033D01*
X19799Y-27033D01*
X19730Y-27033D01*
X19730Y-27033D01*
X19199Y-27033D01*
X19130Y-27033D01*
X19130Y-27033D01*
X18599Y-27033D01*
X18530Y-27033D01*
X18530Y-27033D01*
X17999Y-27033D01*
X17930Y-27033D01*
X17930Y-27033D01*
X17825Y-27033D01*
X17825Y-26308D01*
X17825Y-25758D01*
X17787Y-25667D01*
X17716Y-25596D01*
X17624Y-25558D01*
X17525Y-25558D01*
X16975Y-25558D01*
X16883Y-25596D01*
X16813Y-25666D01*
X16775Y-25758D01*
X16774Y-25857D01*
X16774Y-26407D01*
X16812Y-26499D01*
X16883Y-26570D01*
X16975Y-26608D01*
X17074Y-26608D01*
X17624Y-26608D01*
X17716Y-26570D01*
X17786Y-26500D01*
X17824Y-26408D01*
X17825Y-26308D01*
X17825Y-27033D01*
X17399Y-27033D01*
X17330Y-27033D01*
X17330Y-27033D01*
X16799Y-27033D01*
X16730Y-27033D01*
X16730Y-27033D01*
X16729Y-27033D01*
X16729Y-25159D01*
X16718Y-24950D01*
X16660Y-24810D01*
X16567Y-24786D01*
X16497Y-24857D01*
X16497Y-24715D01*
X16472Y-24622D01*
X16275Y-24553D01*
X16067Y-24564D01*
X15927Y-24622D01*
X15902Y-24715D01*
X16200Y-25012D01*
X16497Y-24715D01*
X16497Y-24857D01*
X16270Y-25083D01*
X16567Y-25380D01*
X16660Y-25356D01*
X16729Y-25159D01*
X16729Y-27033D01*
X16725Y-27033D01*
X16725Y-25979D01*
X16645Y-25786D01*
X16497Y-25638D01*
X16371Y-25586D01*
X16472Y-25544D01*
X16497Y-25451D01*
X16200Y-25154D01*
X16129Y-25224D01*
X16129Y-25083D01*
X15832Y-24786D01*
X15739Y-24810D01*
X15670Y-25007D01*
X15681Y-25216D01*
X15739Y-25356D01*
X15832Y-25380D01*
X16129Y-25083D01*
X16129Y-25224D01*
X15902Y-25451D01*
X15927Y-25544D01*
X16037Y-25582D01*
X15903Y-25638D01*
X15755Y-25785D01*
X15675Y-25978D01*
X15674Y-26187D01*
X15754Y-26380D01*
X15902Y-26528D01*
X16095Y-26608D01*
X16303Y-26608D01*
X16497Y-26528D01*
X16644Y-26381D01*
X16724Y-26188D01*
X16725Y-25979D01*
X16725Y-27033D01*
X16199Y-27033D01*
X16130Y-27033D01*
X16130Y-27033D01*
X15599Y-27033D01*
X15530Y-27033D01*
X15530Y-27033D01*
X15000Y-27033D01*
X15000Y-26383D01*
X15000Y-25683D01*
X14962Y-25592D01*
X14891Y-25521D01*
X14799Y-25483D01*
X14700Y-25483D01*
X14000Y-25483D01*
X13908Y-25521D01*
X13838Y-25591D01*
X13818Y-25638D01*
X13796Y-25616D01*
X13751Y-25661D01*
X13717Y-25560D01*
X13493Y-25478D01*
X13255Y-25489D01*
X13082Y-25560D01*
X13048Y-25661D01*
X13400Y-26012D01*
X13405Y-26007D01*
X13476Y-26077D01*
X13470Y-26083D01*
X13476Y-26089D01*
X13405Y-26159D01*
X13400Y-26154D01*
X13329Y-26224D01*
X13329Y-26083D01*
X12977Y-25732D01*
X12912Y-25753D01*
X12908Y-25744D01*
X12740Y-25575D01*
X12519Y-25483D01*
X12281Y-25483D01*
X12060Y-25574D01*
X11891Y-25743D01*
X11800Y-25963D01*
X11799Y-26202D01*
X11891Y-26422D01*
X12059Y-26591D01*
X12280Y-26683D01*
X12518Y-26683D01*
X12739Y-26592D01*
X12908Y-26423D01*
X12912Y-26413D01*
X12977Y-26434D01*
X13329Y-26083D01*
X13329Y-26224D01*
X13048Y-26505D01*
X13082Y-26606D01*
X13306Y-26687D01*
X13544Y-26677D01*
X13717Y-26606D01*
X13751Y-26505D01*
X13751Y-26505D01*
X13796Y-26550D01*
X13818Y-26528D01*
X13837Y-26574D01*
X13908Y-26645D01*
X14000Y-26683D01*
X14099Y-26683D01*
X14799Y-26683D01*
X14891Y-26645D01*
X14961Y-26575D01*
X14999Y-26483D01*
X15000Y-26383D01*
X15000Y-27033D01*
X14999Y-27033D01*
X14930Y-27033D01*
X14930Y-27033D01*
X14399Y-27033D01*
X14330Y-27033D01*
X14330Y-27033D01*
X13799Y-27033D01*
X13751Y-27033D01*
X13730Y-27033D01*
X13730Y-27033D01*
X13199Y-27033D01*
X13130Y-27033D01*
X13130Y-27033D01*
X12599Y-27033D01*
X12530Y-27033D01*
X12530Y-27033D01*
X11999Y-27033D01*
X11930Y-27033D01*
X11930Y-27033D01*
X11429Y-27033D01*
X11429Y-23659D01*
X11425Y-23570D01*
X11425Y-22479D01*
X11345Y-22286D01*
X11197Y-22138D01*
X11004Y-22058D01*
X10796Y-22058D01*
X10750Y-22077D01*
X10750Y-19275D01*
X10590Y-18889D01*
X10295Y-18593D01*
X9909Y-18433D01*
X9492Y-18433D01*
X9106Y-18592D01*
X8810Y-18887D01*
X8650Y-19273D01*
X8649Y-19691D01*
X8809Y-20077D01*
X9104Y-20373D01*
X9490Y-20533D01*
X9907Y-20533D01*
X10294Y-20374D01*
X10589Y-20079D01*
X10749Y-19693D01*
X10750Y-19275D01*
X10750Y-22077D01*
X10725Y-22087D01*
X10725Y-21079D01*
X10645Y-20886D01*
X10497Y-20738D01*
X10304Y-20658D01*
X10096Y-20658D01*
X9903Y-20738D01*
X9755Y-20885D01*
X9702Y-21012D01*
X9660Y-20910D01*
X9567Y-20886D01*
X9497Y-20957D01*
X9497Y-20815D01*
X9472Y-20722D01*
X9275Y-20653D01*
X9067Y-20664D01*
X8927Y-20722D01*
X8902Y-20815D01*
X9200Y-21112D01*
X9497Y-20815D01*
X9497Y-20957D01*
X9270Y-21183D01*
X9567Y-21480D01*
X9660Y-21456D01*
X9699Y-21346D01*
X9754Y-21480D01*
X9902Y-21628D01*
X10095Y-21708D01*
X10303Y-21708D01*
X10497Y-21628D01*
X10644Y-21481D01*
X10724Y-21288D01*
X10725Y-21079D01*
X10725Y-22087D01*
X10603Y-22138D01*
X10455Y-22285D01*
X10375Y-22478D01*
X10374Y-22687D01*
X10454Y-22880D01*
X10602Y-23028D01*
X10728Y-23080D01*
X10627Y-23122D01*
X10602Y-23215D01*
X10900Y-23512D01*
X11197Y-23215D01*
X11172Y-23122D01*
X11062Y-23084D01*
X11197Y-23028D01*
X11344Y-22881D01*
X11424Y-22688D01*
X11425Y-22479D01*
X11425Y-23570D01*
X11418Y-23450D01*
X11360Y-23310D01*
X11267Y-23286D01*
X10970Y-23583D01*
X11267Y-23880D01*
X11360Y-23856D01*
X11429Y-23659D01*
X11429Y-27033D01*
X11399Y-27033D01*
X11330Y-27033D01*
X11330Y-27033D01*
X11197Y-27033D01*
X11197Y-23951D01*
X10900Y-23654D01*
X10829Y-23724D01*
X10829Y-23583D01*
X10532Y-23286D01*
X10439Y-23310D01*
X10370Y-23507D01*
X10381Y-23716D01*
X10439Y-23856D01*
X10532Y-23880D01*
X10829Y-23583D01*
X10829Y-23724D01*
X10602Y-23951D01*
X10627Y-24044D01*
X10824Y-24113D01*
X11032Y-24102D01*
X11172Y-24044D01*
X11197Y-23951D01*
X11197Y-27033D01*
X10799Y-27033D01*
X10750Y-27033D01*
X10750Y-25275D01*
X10590Y-24889D01*
X10295Y-24593D01*
X9909Y-24433D01*
X9754Y-24433D01*
X9754Y-23665D01*
X9750Y-23570D01*
X9750Y-22833D01*
X9750Y-22233D01*
X9712Y-22142D01*
X9641Y-22071D01*
X9549Y-22033D01*
X9497Y-22033D01*
X9497Y-21551D01*
X9200Y-21254D01*
X9129Y-21324D01*
X9129Y-21183D01*
X8832Y-20886D01*
X8739Y-20910D01*
X8670Y-21107D01*
X8681Y-21316D01*
X8739Y-21456D01*
X8832Y-21480D01*
X9129Y-21183D01*
X9129Y-21324D01*
X8902Y-21551D01*
X8927Y-21644D01*
X9124Y-21713D01*
X9332Y-21702D01*
X9472Y-21644D01*
X9497Y-21551D01*
X9497Y-22033D01*
X9450Y-22033D01*
X8850Y-22033D01*
X8758Y-22071D01*
X8688Y-22141D01*
X8650Y-22233D01*
X8649Y-22332D01*
X8649Y-22932D01*
X8687Y-23024D01*
X8758Y-23095D01*
X8850Y-23133D01*
X8903Y-23133D01*
X8884Y-23197D01*
X9200Y-23512D01*
X9515Y-23197D01*
X9496Y-23133D01*
X9549Y-23133D01*
X9641Y-23095D01*
X9711Y-23025D01*
X9749Y-22933D01*
X9750Y-22833D01*
X9750Y-23570D01*
X9743Y-23446D01*
X9681Y-23295D01*
X9585Y-23268D01*
X9270Y-23583D01*
X9585Y-23898D01*
X9681Y-23871D01*
X9754Y-23665D01*
X9754Y-24433D01*
X9515Y-24433D01*
X9515Y-23969D01*
X9200Y-23654D01*
X9129Y-23724D01*
X9129Y-23583D01*
X8814Y-23268D01*
X8718Y-23295D01*
X8645Y-23501D01*
X8656Y-23720D01*
X8718Y-23871D01*
X8814Y-23898D01*
X9129Y-23583D01*
X9129Y-23724D01*
X8884Y-23969D01*
X8912Y-24064D01*
X9118Y-24138D01*
X9336Y-24127D01*
X9487Y-24064D01*
X9515Y-23969D01*
X9515Y-24433D01*
X9492Y-24433D01*
X9106Y-24592D01*
X8810Y-24887D01*
X8650Y-25273D01*
X8649Y-25691D01*
X8809Y-26077D01*
X9104Y-26373D01*
X9490Y-26533D01*
X9907Y-26533D01*
X10294Y-26374D01*
X10589Y-26079D01*
X10749Y-25693D01*
X10750Y-25275D01*
X10750Y-27033D01*
X10730Y-27033D01*
X10730Y-27033D01*
X10199Y-27033D01*
X10130Y-27033D01*
X10130Y-27033D01*
X9599Y-27033D01*
X9530Y-27033D01*
X9530Y-27033D01*
X8999Y-27033D01*
X8930Y-27033D01*
X8930Y-27033D01*
X8399Y-27033D01*
X8330Y-27033D01*
X8330Y-27033D01*
X8250Y-27033D01*
X8250Y-17953D01*
X27130Y-17953D01*
X27130Y-27033D01*
M02*
