G04 (created by PCBNEW (2013-june-11)-stable) date Sun 05 Oct 2014 09:08:42 PM EDT*
%MOIN*%
G04 Gerber Fmt 3.4, Leading zero omitted, Abs format*
%FSLAX34Y34*%
G01*
G70*
G90*
G04 APERTURE LIST*
%ADD10C,0.00590551*%
%ADD11R,0.07X0.07*%
%ADD12C,0.07*%
%ADD13C,0.06*%
%ADD14C,0.02*%
%ADD15R,0.055X0.055*%
%ADD16C,0.055*%
%ADD17C,0.16*%
%ADD18R,0.06X0.06*%
G04 APERTURE END LIST*
G54D10*
G54D11*
X14400Y-16300D03*
G54D12*
X12400Y-16300D03*
X13400Y-16300D03*
X25200Y-11600D03*
G54D11*
X25200Y-13600D03*
G54D12*
X25200Y-9600D03*
G54D13*
X25200Y-12600D03*
X25200Y-10600D03*
G54D14*
X18000Y-17600D03*
X18600Y-17600D03*
X19800Y-17600D03*
X19200Y-17600D03*
X21600Y-17600D03*
X22200Y-17600D03*
X21000Y-17600D03*
X20400Y-17600D03*
X25200Y-17600D03*
X25800Y-17600D03*
X27000Y-17600D03*
X26400Y-17600D03*
X24000Y-17600D03*
X24600Y-17600D03*
X23400Y-17600D03*
X22800Y-17600D03*
X13200Y-17600D03*
X13800Y-17600D03*
X15000Y-17600D03*
X14400Y-17600D03*
X16800Y-17600D03*
X17400Y-17600D03*
X16200Y-17600D03*
X15600Y-17600D03*
X10800Y-17600D03*
X11400Y-17600D03*
X12600Y-17600D03*
X12000Y-17600D03*
X9600Y-17600D03*
X10200Y-17600D03*
X9000Y-17600D03*
X8400Y-17600D03*
G54D11*
X19800Y-12500D03*
G54D12*
X21800Y-12500D03*
X20800Y-12500D03*
X19800Y-14500D03*
X20800Y-14500D03*
G54D11*
X21800Y-14500D03*
G54D15*
X15300Y-9800D03*
G54D16*
X14300Y-9800D03*
X13300Y-9800D03*
X12300Y-9800D03*
X12300Y-12800D03*
X13300Y-12800D03*
X14300Y-12800D03*
X15300Y-12800D03*
G54D15*
X23600Y-9900D03*
G54D16*
X20600Y-9900D03*
G54D15*
X20600Y-11000D03*
G54D16*
X23600Y-11000D03*
X10900Y-13800D03*
X10900Y-12800D03*
X19400Y-9900D03*
X19400Y-10900D03*
X12300Y-14400D03*
X15300Y-14400D03*
G54D15*
X17300Y-16300D03*
G54D16*
X17300Y-13300D03*
X9200Y-11400D03*
X10200Y-11400D03*
G54D17*
X9700Y-9700D03*
G54D18*
X9200Y-12800D03*
G54D13*
X9200Y-13800D03*
G54D17*
X25600Y-15700D03*
X9700Y-15700D03*
G54D18*
X17400Y-11800D03*
G54D13*
X17400Y-10800D03*
G54D18*
X18800Y-16300D03*
G54D13*
X19800Y-16300D03*
X20800Y-16300D03*
X21800Y-16300D03*
G54D16*
X16200Y-15300D03*
X16200Y-16300D03*
M02*
