M48
INCH,TZ
T1C0.020
%
G90
G05
T1
X008400Y-017600
X009000Y-017600
X009600Y-017600
X010200Y-017600
X010800Y-017600
X011400Y-017600
X012000Y-017600
X012600Y-017600
X013200Y-017600
X013800Y-017600
X014400Y-017600
X015000Y-017600
X015600Y-017600
X016200Y-017600
X016800Y-017600
X017400Y-017600
X018000Y-017600
X018600Y-017600
X019200Y-017600
X019800Y-017600
X020400Y-017600
X021000Y-017600
X021600Y-017600
X022200Y-017600
X022800Y-017600
X023400Y-017600
X024000Y-017600
X024600Y-017600
X025200Y-017600
X025800Y-017600
X026400Y-017600
X027000Y-017600
T0
M30
