M48
INCH,TZ
T1C0.032
T2C0.040
T3C0.045
T4C0.120
%
G90
G05
T1
X009200Y-011400
X009200Y-021183
X010200Y-011400
X010200Y-021183
X010900Y-012800
X010900Y-013800
X010900Y-022583
X010900Y-023583
X012300Y-009800
X012300Y-012800
X012300Y-014400
X012300Y-019583
X012300Y-022583
X012300Y-024183
X013300Y-009800
X013300Y-012800
X013300Y-019583
X013300Y-022583
X014300Y-009800
X014300Y-012800
X014300Y-019583
X014300Y-022583
X015300Y-009800
X015300Y-012800
X015300Y-014400
X015300Y-019583
X015300Y-022583
X015300Y-024183
X016200Y-015300
X016200Y-016300
X016200Y-025083
X016200Y-026083
X017300Y-013300
X017300Y-016300
X017300Y-023083
X017300Y-026083
X017400Y-010800
X017400Y-011800
X017400Y-020583
X017400Y-021583
X019400Y-009900
X019400Y-010900
X019400Y-019683
X019400Y-020683
X020600Y-009900
X020600Y-011000
X020600Y-019683
X020600Y-020783
X023600Y-009900
X023600Y-011000
X023600Y-019683
X023600Y-020783
X025200Y-009600
X025200Y-010600
X025200Y-011600
X025200Y-012600
X025200Y-013600
X025200Y-019383
X025200Y-020383
X025200Y-021383
X025200Y-022383
X025200Y-023383
T2
X009200Y-012800
X009200Y-013800
X009200Y-022583
X009200Y-023583
X018800Y-016300
X018800Y-026083
X019800Y-016300
X019800Y-026083
X020800Y-016300
X020800Y-026083
X021800Y-016300
X021800Y-026083
T3
X012400Y-016300
X012400Y-026083
X013400Y-016300
X013400Y-026083
X014400Y-016300
X014400Y-026083
X019800Y-012500
X019800Y-014500
X019800Y-022283
X019800Y-024283
X020800Y-012500
X020800Y-014500
X020800Y-022283
X020800Y-024283
X021800Y-012500
X021800Y-014500
X021800Y-022283
X021800Y-024283
T4
X009700Y-009700
X009700Y-015700
X009700Y-019483
X009700Y-025483
X025600Y-015700
X025600Y-025483
T0
M30
