G04 (created by PCBNEW (2013-june-11)-stable) date Wed 22 Oct 2014 09:51:14 PM EDT*
%MOIN*%
G04 Gerber Fmt 3.4, Leading zero omitted, Abs format*
%FSLAX34Y34*%
G01*
G70*
G90*
G04 APERTURE LIST*
%ADD10C,0.00590551*%
%ADD11R,0.07X0.07*%
%ADD12C,0.07*%
%ADD13C,0.06*%
%ADD14R,0.055X0.055*%
%ADD15C,0.055*%
%ADD16C,0.16*%
%ADD17R,0.06X0.06*%
%ADD18C,0.08*%
%ADD19C,0.01*%
%ADD20C,0.02*%
G04 APERTURE END LIST*
G54D10*
G54D11*
X21800Y-14500D03*
G54D12*
X20800Y-14500D03*
X19800Y-14500D03*
X20800Y-12500D03*
X21800Y-12500D03*
G54D11*
X19800Y-12500D03*
X18800Y-16300D03*
G54D12*
X19800Y-16300D03*
X20800Y-16300D03*
X21800Y-16300D03*
X25200Y-11600D03*
G54D11*
X25200Y-13600D03*
G54D12*
X25200Y-9600D03*
G54D13*
X25200Y-12600D03*
X25200Y-10600D03*
G54D11*
X14400Y-16300D03*
G54D12*
X12400Y-16300D03*
X13400Y-16300D03*
G54D14*
X15300Y-9800D03*
G54D15*
X14300Y-9800D03*
X13300Y-9800D03*
X12300Y-9800D03*
X12300Y-12800D03*
X13300Y-12800D03*
X14300Y-12800D03*
X15300Y-12800D03*
G54D14*
X23600Y-9900D03*
G54D15*
X20600Y-9900D03*
G54D14*
X20600Y-11000D03*
G54D15*
X23600Y-11000D03*
X10900Y-13800D03*
X10900Y-12800D03*
X19400Y-9900D03*
X19400Y-10900D03*
X12300Y-14400D03*
X15300Y-14400D03*
G54D14*
X17300Y-16300D03*
G54D15*
X17300Y-13300D03*
X9200Y-11400D03*
X10200Y-11400D03*
G54D16*
X9700Y-9700D03*
G54D17*
X9200Y-12800D03*
G54D13*
X9200Y-13800D03*
G54D16*
X25600Y-15700D03*
X9700Y-15700D03*
G54D17*
X17400Y-11800D03*
G54D13*
X17400Y-10800D03*
G54D15*
X16200Y-15300D03*
X16200Y-16300D03*
G54D11*
X21800Y-24283D03*
G54D12*
X20800Y-24283D03*
X19800Y-24283D03*
X20800Y-22283D03*
X21800Y-22283D03*
G54D11*
X19800Y-22283D03*
X18800Y-26083D03*
G54D12*
X19800Y-26083D03*
X20800Y-26083D03*
X21800Y-26083D03*
X25200Y-21383D03*
G54D11*
X25200Y-23383D03*
G54D12*
X25200Y-19383D03*
G54D13*
X25200Y-22383D03*
X25200Y-20383D03*
G54D11*
X14400Y-26083D03*
G54D12*
X12400Y-26083D03*
X13400Y-26083D03*
G54D14*
X15300Y-19583D03*
G54D15*
X14300Y-19583D03*
X13300Y-19583D03*
X12300Y-19583D03*
X12300Y-22583D03*
X13300Y-22583D03*
X14300Y-22583D03*
X15300Y-22583D03*
G54D14*
X23600Y-19683D03*
G54D15*
X20600Y-19683D03*
G54D14*
X20600Y-20783D03*
G54D15*
X23600Y-20783D03*
X10900Y-23583D03*
X10900Y-22583D03*
X19400Y-19683D03*
X19400Y-20683D03*
X12300Y-24183D03*
X15300Y-24183D03*
G54D14*
X17300Y-26083D03*
G54D15*
X17300Y-23083D03*
X9200Y-21183D03*
X10200Y-21183D03*
G54D16*
X9700Y-19483D03*
G54D17*
X9200Y-22583D03*
G54D13*
X9200Y-23583D03*
G54D16*
X25600Y-25483D03*
X9700Y-25483D03*
G54D17*
X17400Y-21583D03*
G54D13*
X17400Y-20583D03*
G54D15*
X16200Y-25083D03*
X16200Y-26083D03*
G54D18*
X16200Y-16300D02*
X14400Y-16300D01*
X17300Y-16300D02*
X16200Y-16300D01*
X18800Y-16300D02*
X19800Y-16300D01*
X17300Y-16300D02*
X18800Y-16300D01*
X16200Y-26083D02*
X14400Y-26083D01*
X17300Y-26083D02*
X16200Y-26083D01*
X18800Y-26083D02*
X19800Y-26083D01*
X17300Y-26083D02*
X18800Y-26083D01*
X20800Y-16300D02*
X20800Y-14500D01*
X20800Y-14500D02*
X20800Y-13500D01*
X18800Y-13500D02*
X20800Y-13500D01*
X18600Y-13300D02*
X18800Y-13500D01*
X17300Y-13300D02*
X18600Y-13300D01*
X21800Y-13500D02*
X21800Y-12500D01*
X20800Y-13500D02*
X21800Y-13500D01*
X20800Y-26083D02*
X20800Y-24283D01*
X20800Y-24283D02*
X20800Y-23283D01*
X18800Y-23283D02*
X20800Y-23283D01*
X18600Y-23083D02*
X18800Y-23283D01*
X17300Y-23083D02*
X18600Y-23083D01*
X21800Y-23283D02*
X21800Y-22283D01*
X20800Y-23283D02*
X21800Y-23283D01*
G54D19*
X14300Y-9800D02*
X14300Y-9300D01*
X18500Y-9000D02*
X19400Y-9900D01*
X14600Y-9000D02*
X18500Y-9000D01*
X14300Y-9300D02*
X14600Y-9000D01*
X20600Y-9900D02*
X20050Y-10450D01*
X20050Y-10450D02*
X20100Y-10500D01*
X19400Y-9900D02*
X19500Y-9900D01*
X19500Y-9900D02*
X20100Y-10500D01*
X20100Y-10500D02*
X20600Y-11000D01*
X14300Y-19583D02*
X14300Y-19083D01*
X18500Y-18783D02*
X19400Y-19683D01*
X14600Y-18783D02*
X18500Y-18783D01*
X14300Y-19083D02*
X14600Y-18783D01*
X20600Y-19683D02*
X20050Y-20233D01*
X20050Y-20233D02*
X20100Y-20283D01*
X19400Y-19683D02*
X19500Y-19683D01*
X19500Y-19683D02*
X20100Y-20283D01*
X20100Y-20283D02*
X20600Y-20783D01*
X23600Y-11000D02*
X24000Y-11000D01*
X24600Y-12600D02*
X25200Y-12600D01*
X24200Y-12200D02*
X24600Y-12600D01*
X24200Y-11200D02*
X24200Y-12200D01*
X24000Y-11000D02*
X24200Y-11200D01*
X25200Y-13600D02*
X24600Y-13600D01*
X23600Y-12600D02*
X23600Y-11000D01*
X24600Y-13600D02*
X23600Y-12600D01*
X23600Y-20783D02*
X24000Y-20783D01*
X24600Y-22383D02*
X25200Y-22383D01*
X24200Y-21983D02*
X24600Y-22383D01*
X24200Y-20983D02*
X24200Y-21983D01*
X24000Y-20783D02*
X24200Y-20983D01*
X25200Y-23383D02*
X24600Y-23383D01*
X23600Y-22383D02*
X23600Y-20783D01*
X24600Y-23383D02*
X23600Y-22383D01*
X12300Y-12800D02*
X10900Y-12800D01*
X12300Y-22583D02*
X10900Y-22583D01*
X25200Y-11600D02*
X26400Y-10400D01*
X13300Y-9400D02*
X13300Y-9800D01*
X14000Y-8700D02*
X13300Y-9400D01*
X25800Y-8700D02*
X14000Y-8700D01*
X26400Y-9300D02*
X25800Y-8700D01*
X26400Y-10400D02*
X26400Y-9300D01*
X25200Y-21383D02*
X26400Y-20183D01*
X13300Y-19183D02*
X13300Y-19583D01*
X14000Y-18483D02*
X13300Y-19183D01*
X25800Y-18483D02*
X14000Y-18483D01*
X26400Y-19083D02*
X25800Y-18483D01*
X26400Y-20183D02*
X26400Y-19083D01*
X23600Y-9900D02*
X24300Y-10600D01*
X24300Y-10600D02*
X25200Y-10600D01*
X25200Y-9600D02*
X23900Y-9600D01*
X23900Y-9600D02*
X23600Y-9900D01*
X23600Y-19683D02*
X24300Y-20383D01*
X24300Y-20383D02*
X25200Y-20383D01*
X25200Y-19383D02*
X23900Y-19383D01*
X23900Y-19383D02*
X23600Y-19683D01*
G54D20*
X15300Y-12800D02*
X15300Y-14400D01*
X12400Y-16300D02*
X12400Y-16100D01*
X10100Y-13100D02*
X9800Y-12800D01*
X10100Y-14200D02*
X10100Y-13100D01*
X10400Y-14500D02*
X10100Y-14200D01*
X10800Y-14500D02*
X10400Y-14500D01*
X12400Y-16100D02*
X10800Y-14500D01*
X10200Y-11400D02*
X10200Y-11800D01*
X10200Y-11800D02*
X10500Y-12100D01*
X12300Y-9800D02*
X12300Y-11300D01*
X15300Y-12800D02*
X15300Y-12300D01*
X15300Y-12300D02*
X15800Y-11800D01*
X17400Y-11800D02*
X15800Y-11800D01*
X10500Y-12100D02*
X9800Y-12800D01*
X15800Y-11800D02*
X15300Y-11300D01*
X15300Y-11300D02*
X12300Y-11300D01*
X12300Y-11300D02*
X11800Y-11300D01*
X11800Y-11300D02*
X11000Y-12100D01*
X11000Y-12100D02*
X10500Y-12100D01*
X9200Y-12800D02*
X9800Y-12800D01*
X15300Y-22583D02*
X15300Y-24183D01*
X12400Y-26083D02*
X12400Y-25883D01*
X10100Y-22883D02*
X9800Y-22583D01*
X10100Y-23983D02*
X10100Y-22883D01*
X10400Y-24283D02*
X10100Y-23983D01*
X10800Y-24283D02*
X10400Y-24283D01*
X12400Y-25883D02*
X10800Y-24283D01*
X10200Y-21183D02*
X10200Y-21583D01*
X10200Y-21583D02*
X10500Y-21883D01*
X12300Y-19583D02*
X12300Y-21083D01*
X15300Y-22583D02*
X15300Y-22083D01*
X15300Y-22083D02*
X15800Y-21583D01*
X17400Y-21583D02*
X15800Y-21583D01*
X10500Y-21883D02*
X9800Y-22583D01*
X15800Y-21583D02*
X15300Y-21083D01*
X15300Y-21083D02*
X12300Y-21083D01*
X12300Y-21083D02*
X11800Y-21083D01*
X11800Y-21083D02*
X11000Y-21883D01*
X11000Y-21883D02*
X10500Y-21883D01*
X9200Y-22583D02*
X9800Y-22583D01*
M02*
