G04 (created by PCBNEW (2013-june-11)-stable) date Sat 04 Oct 2014 08:52:10 PM EDT*
%MOIN*%
G04 Gerber Fmt 3.4, Leading zero omitted, Abs format*
%FSLAX34Y34*%
G01*
G70*
G90*
G04 APERTURE LIST*
%ADD10C,0.00590551*%
%ADD11C,0.011811*%
%ADD12C,0.02*%
%ADD13C,0.01*%
%ADD14C,0.012*%
%ADD15C,0.008*%
%ADD16C,0.015*%
%ADD17C,0.006*%
%ADD18C,0.005*%
%ADD19C,0.004*%
%ADD20C,0.002*%
%ADD21C,0.01125*%
G04 APERTURE END LIST*
G54D10*
G54D11*
X22675Y-16314D02*
X23124Y-16314D01*
X17875Y-15614D02*
X18324Y-15614D01*
X18100Y-15839D02*
X18100Y-15389D01*
X8175Y-13814D02*
X8624Y-13814D01*
X8175Y-12714D02*
X8624Y-12714D01*
X8400Y-12939D02*
X8400Y-12489D01*
G54D12*
X27200Y-8100D02*
X27200Y-15100D01*
X24200Y-8100D02*
X24200Y-15100D01*
X24200Y-8100D02*
X27200Y-8100D01*
G54D13*
X22800Y-11500D02*
X22800Y-13500D01*
X22800Y-13500D02*
X18800Y-13500D01*
X18800Y-13500D02*
X18800Y-11500D01*
X18800Y-11500D02*
X22800Y-11500D01*
X18800Y-15500D02*
X18800Y-13500D01*
X18800Y-13500D02*
X22800Y-13500D01*
X22800Y-13500D02*
X22800Y-15500D01*
X22800Y-15500D02*
X18800Y-15500D01*
X15800Y-11800D02*
X15300Y-11800D01*
X15300Y-11800D02*
X15300Y-10800D01*
X15300Y-10800D02*
X15800Y-10800D01*
X15800Y-12300D02*
X11800Y-12300D01*
X11800Y-12300D02*
X11800Y-10300D01*
X11800Y-10300D02*
X15800Y-10300D01*
X15800Y-10300D02*
X15800Y-12300D01*
G54D14*
X23600Y-9900D02*
X23300Y-9900D01*
X23300Y-9900D02*
X23300Y-9500D01*
X23300Y-9500D02*
X20900Y-9500D01*
X20900Y-9500D02*
X20900Y-9900D01*
X20900Y-9900D02*
X20600Y-9900D01*
X20900Y-9900D02*
X20900Y-10300D01*
X20900Y-10300D02*
X23300Y-10300D01*
X23300Y-10300D02*
X23300Y-9900D01*
X23100Y-9500D02*
X23100Y-10300D01*
X23000Y-10300D02*
X23000Y-9500D01*
X20600Y-11000D02*
X20900Y-11000D01*
X20900Y-11000D02*
X20900Y-11400D01*
X20900Y-11400D02*
X23300Y-11400D01*
X23300Y-11400D02*
X23300Y-11000D01*
X23300Y-11000D02*
X23600Y-11000D01*
X23300Y-11000D02*
X23300Y-10600D01*
X23300Y-10600D02*
X20900Y-10600D01*
X20900Y-10600D02*
X20900Y-11000D01*
X21100Y-11400D02*
X21100Y-10600D01*
X21200Y-10600D02*
X21200Y-11400D01*
X10400Y-14280D02*
X10400Y-12300D01*
X10400Y-12300D02*
X11400Y-12300D01*
X11400Y-12300D02*
X11400Y-14300D01*
X11400Y-14300D02*
X10400Y-14300D01*
X10650Y-14300D02*
X10400Y-14050D01*
X19900Y-9420D02*
X19900Y-11400D01*
X19900Y-11400D02*
X18900Y-11400D01*
X18900Y-11400D02*
X18900Y-9400D01*
X18900Y-9400D02*
X19900Y-9400D01*
X19650Y-9400D02*
X19900Y-9650D01*
G54D15*
X12300Y-14600D02*
X12500Y-14600D01*
X15300Y-14600D02*
X15100Y-14600D01*
X15100Y-14600D02*
X15100Y-14200D01*
X15100Y-14200D02*
X12500Y-14200D01*
X12500Y-14200D02*
X12500Y-15000D01*
X12500Y-15000D02*
X15100Y-15000D01*
X15100Y-15000D02*
X15100Y-14600D01*
X12500Y-14400D02*
X12700Y-14200D01*
G54D14*
X17300Y-16300D02*
X17300Y-16000D01*
X17300Y-16000D02*
X17700Y-16000D01*
X17700Y-16000D02*
X17700Y-13600D01*
X17700Y-13600D02*
X17300Y-13600D01*
X17300Y-13600D02*
X17300Y-13300D01*
X17300Y-13600D02*
X16900Y-13600D01*
X16900Y-13600D02*
X16900Y-16000D01*
X16900Y-16000D02*
X17300Y-16000D01*
X17700Y-15800D02*
X16900Y-15800D01*
X16900Y-15700D02*
X17700Y-15700D01*
G54D15*
X12300Y-16300D02*
X12500Y-16300D01*
X15300Y-16300D02*
X15100Y-16300D01*
X15100Y-16300D02*
X15100Y-15900D01*
X15100Y-15900D02*
X12500Y-15900D01*
X12500Y-15900D02*
X12500Y-16700D01*
X12500Y-16700D02*
X15100Y-16700D01*
X15100Y-16700D02*
X15100Y-16300D01*
X12500Y-16100D02*
X12700Y-15900D01*
G54D14*
X8720Y-10900D02*
X10700Y-10900D01*
X10700Y-10900D02*
X10700Y-11900D01*
X10700Y-11900D02*
X8700Y-11900D01*
X8700Y-11900D02*
X8700Y-10900D01*
X8700Y-11150D02*
X8950Y-10900D01*
G54D16*
X10600Y-9700D02*
G75*
G03X10600Y-9700I-900J0D01*
G74*
G01*
G54D17*
X8700Y-12300D02*
X9700Y-12300D01*
X9700Y-12300D02*
X9700Y-14300D01*
X9700Y-14300D02*
X8700Y-14300D01*
X8700Y-14300D02*
X8700Y-12300D01*
G54D16*
X26500Y-15700D02*
G75*
G03X26500Y-15700I-900J0D01*
G74*
G01*
X10600Y-15700D02*
G75*
G03X10600Y-15700I-900J0D01*
G74*
G01*
G54D18*
X18650Y-11300D02*
G75*
G03X18650Y-11300I-1250J0D01*
G74*
G01*
G54D13*
X22300Y-16800D02*
X18300Y-16800D01*
X22300Y-15800D02*
X18300Y-15800D01*
X18300Y-15800D02*
X18300Y-16800D01*
X22300Y-16800D02*
X22300Y-15800D01*
G54D14*
X26842Y-14057D02*
X26557Y-14257D01*
X26842Y-14400D02*
X26242Y-14400D01*
X26242Y-14171D01*
X26271Y-14114D01*
X26300Y-14085D01*
X26357Y-14057D01*
X26442Y-14057D01*
X26500Y-14085D01*
X26528Y-14114D01*
X26557Y-14171D01*
X26557Y-14400D01*
X26242Y-13885D02*
X26842Y-13685D01*
X26242Y-13485D01*
X26842Y-12971D02*
X26842Y-13314D01*
X26842Y-13142D02*
X26242Y-13142D01*
X26328Y-13200D01*
X26385Y-13257D01*
X26414Y-13314D01*
X26742Y-11957D02*
X26742Y-12300D01*
X26742Y-12128D02*
X26142Y-12128D01*
X26228Y-12185D01*
X26285Y-12242D01*
X26314Y-12300D01*
X26142Y-11585D02*
X26142Y-11528D01*
X26171Y-11471D01*
X26200Y-11442D01*
X26257Y-11414D01*
X26371Y-11385D01*
X26514Y-11385D01*
X26628Y-11414D01*
X26685Y-11442D01*
X26714Y-11471D01*
X26742Y-11528D01*
X26742Y-11585D01*
X26714Y-11642D01*
X26685Y-11671D01*
X26628Y-11700D01*
X26514Y-11728D01*
X26371Y-11728D01*
X26257Y-11700D01*
X26200Y-11671D01*
X26171Y-11642D01*
X26142Y-11585D01*
X26742Y-11128D02*
X26142Y-11128D01*
X26514Y-11071D02*
X26742Y-10899D01*
X26342Y-10899D02*
X26571Y-11128D01*
G54D17*
X23271Y-12650D02*
X23242Y-12635D01*
X23214Y-12607D01*
X23171Y-12564D01*
X23142Y-12550D01*
X23114Y-12550D01*
X23128Y-12621D02*
X23100Y-12607D01*
X23071Y-12578D01*
X23057Y-12521D01*
X23057Y-12421D01*
X23071Y-12364D01*
X23100Y-12335D01*
X23128Y-12321D01*
X23185Y-12321D01*
X23214Y-12335D01*
X23242Y-12364D01*
X23257Y-12421D01*
X23257Y-12521D01*
X23242Y-12578D01*
X23214Y-12607D01*
X23185Y-12621D01*
X23128Y-12621D01*
X23371Y-12350D02*
X23385Y-12335D01*
X23414Y-12321D01*
X23485Y-12321D01*
X23514Y-12335D01*
X23528Y-12350D01*
X23542Y-12378D01*
X23542Y-12407D01*
X23528Y-12450D01*
X23357Y-12621D01*
X23542Y-12621D01*
G54D19*
X19909Y-13280D02*
X19909Y-13080D01*
X19976Y-13223D01*
X20042Y-13080D01*
X20042Y-13280D01*
X20176Y-13080D02*
X20214Y-13080D01*
X20233Y-13090D01*
X20252Y-13109D01*
X20261Y-13147D01*
X20261Y-13214D01*
X20252Y-13252D01*
X20233Y-13271D01*
X20214Y-13280D01*
X20176Y-13280D01*
X20157Y-13271D01*
X20138Y-13252D01*
X20128Y-13214D01*
X20128Y-13147D01*
X20138Y-13109D01*
X20157Y-13090D01*
X20176Y-13080D01*
X20338Y-13271D02*
X20366Y-13280D01*
X20414Y-13280D01*
X20433Y-13271D01*
X20442Y-13261D01*
X20452Y-13242D01*
X20452Y-13223D01*
X20442Y-13204D01*
X20433Y-13195D01*
X20414Y-13185D01*
X20376Y-13176D01*
X20357Y-13166D01*
X20347Y-13157D01*
X20338Y-13138D01*
X20338Y-13119D01*
X20347Y-13100D01*
X20357Y-13090D01*
X20376Y-13080D01*
X20423Y-13080D01*
X20452Y-13090D01*
X20604Y-13176D02*
X20538Y-13176D01*
X20538Y-13280D02*
X20538Y-13080D01*
X20633Y-13080D01*
X20709Y-13176D02*
X20776Y-13176D01*
X20804Y-13280D02*
X20709Y-13280D01*
X20709Y-13080D01*
X20804Y-13080D01*
X20861Y-13080D02*
X20976Y-13080D01*
X20919Y-13280D02*
X20919Y-13080D01*
X20995Y-13300D02*
X21147Y-13300D01*
X21195Y-13280D02*
X21195Y-13080D01*
X21242Y-13080D01*
X21271Y-13090D01*
X21290Y-13109D01*
X21300Y-13128D01*
X21309Y-13166D01*
X21309Y-13195D01*
X21300Y-13233D01*
X21290Y-13252D01*
X21271Y-13271D01*
X21242Y-13280D01*
X21195Y-13280D01*
X21500Y-13090D02*
X21480Y-13080D01*
X21452Y-13080D01*
X21423Y-13090D01*
X21404Y-13109D01*
X21395Y-13128D01*
X21385Y-13166D01*
X21385Y-13195D01*
X21395Y-13233D01*
X21404Y-13252D01*
X21423Y-13271D01*
X21452Y-13280D01*
X21471Y-13280D01*
X21500Y-13271D01*
X21509Y-13261D01*
X21509Y-13195D01*
X21471Y-13195D01*
X21585Y-13271D02*
X21614Y-13280D01*
X21661Y-13280D01*
X21680Y-13271D01*
X21690Y-13261D01*
X21700Y-13242D01*
X21700Y-13223D01*
X21690Y-13204D01*
X21680Y-13195D01*
X21661Y-13185D01*
X21623Y-13176D01*
X21604Y-13166D01*
X21595Y-13157D01*
X21585Y-13138D01*
X21585Y-13119D01*
X21595Y-13100D01*
X21604Y-13090D01*
X21623Y-13080D01*
X21671Y-13080D01*
X21700Y-13090D01*
G54D20*
X19628Y-11789D02*
X19664Y-11801D01*
X19723Y-11801D01*
X19747Y-11789D01*
X19759Y-11777D01*
X19771Y-11753D01*
X19771Y-11729D01*
X19759Y-11705D01*
X19747Y-11694D01*
X19723Y-11682D01*
X19676Y-11670D01*
X19652Y-11658D01*
X19640Y-11646D01*
X19628Y-11622D01*
X19628Y-11598D01*
X19640Y-11575D01*
X19652Y-11563D01*
X19676Y-11551D01*
X19735Y-11551D01*
X19771Y-11563D01*
X20765Y-11563D02*
X20741Y-11551D01*
X20705Y-11551D01*
X20670Y-11563D01*
X20646Y-11586D01*
X20634Y-11610D01*
X20622Y-11658D01*
X20622Y-11694D01*
X20634Y-11741D01*
X20646Y-11765D01*
X20670Y-11789D01*
X20705Y-11801D01*
X20729Y-11801D01*
X20765Y-11789D01*
X20777Y-11777D01*
X20777Y-11694D01*
X20729Y-11694D01*
X21634Y-11801D02*
X21634Y-11551D01*
X21694Y-11551D01*
X21729Y-11563D01*
X21753Y-11586D01*
X21765Y-11610D01*
X21777Y-11658D01*
X21777Y-11694D01*
X21765Y-11741D01*
X21753Y-11765D01*
X21729Y-11789D01*
X21694Y-11801D01*
X21634Y-11801D01*
G54D17*
X23271Y-14650D02*
X23242Y-14635D01*
X23214Y-14607D01*
X23171Y-14564D01*
X23142Y-14550D01*
X23114Y-14550D01*
X23128Y-14621D02*
X23100Y-14607D01*
X23071Y-14578D01*
X23057Y-14521D01*
X23057Y-14421D01*
X23071Y-14364D01*
X23100Y-14335D01*
X23128Y-14321D01*
X23185Y-14321D01*
X23214Y-14335D01*
X23242Y-14364D01*
X23257Y-14421D01*
X23257Y-14521D01*
X23242Y-14578D01*
X23214Y-14607D01*
X23185Y-14621D01*
X23128Y-14621D01*
X23357Y-14321D02*
X23542Y-14321D01*
X23442Y-14435D01*
X23485Y-14435D01*
X23514Y-14450D01*
X23528Y-14464D01*
X23542Y-14492D01*
X23542Y-14564D01*
X23528Y-14592D01*
X23514Y-14607D01*
X23485Y-14621D01*
X23400Y-14621D01*
X23371Y-14607D01*
X23357Y-14592D01*
G54D19*
X19909Y-13880D02*
X19909Y-13680D01*
X19976Y-13823D01*
X20042Y-13680D01*
X20042Y-13880D01*
X20176Y-13680D02*
X20214Y-13680D01*
X20233Y-13690D01*
X20252Y-13709D01*
X20261Y-13747D01*
X20261Y-13814D01*
X20252Y-13852D01*
X20233Y-13871D01*
X20214Y-13880D01*
X20176Y-13880D01*
X20157Y-13871D01*
X20138Y-13852D01*
X20128Y-13814D01*
X20128Y-13747D01*
X20138Y-13709D01*
X20157Y-13690D01*
X20176Y-13680D01*
X20338Y-13871D02*
X20366Y-13880D01*
X20414Y-13880D01*
X20433Y-13871D01*
X20442Y-13861D01*
X20452Y-13842D01*
X20452Y-13823D01*
X20442Y-13804D01*
X20433Y-13795D01*
X20414Y-13785D01*
X20376Y-13776D01*
X20357Y-13766D01*
X20347Y-13757D01*
X20338Y-13738D01*
X20338Y-13719D01*
X20347Y-13700D01*
X20357Y-13690D01*
X20376Y-13680D01*
X20423Y-13680D01*
X20452Y-13690D01*
X20604Y-13776D02*
X20538Y-13776D01*
X20538Y-13880D02*
X20538Y-13680D01*
X20633Y-13680D01*
X20709Y-13776D02*
X20776Y-13776D01*
X20804Y-13880D02*
X20709Y-13880D01*
X20709Y-13680D01*
X20804Y-13680D01*
X20861Y-13680D02*
X20976Y-13680D01*
X20919Y-13880D02*
X20919Y-13680D01*
X20995Y-13900D02*
X21147Y-13900D01*
X21300Y-13690D02*
X21280Y-13680D01*
X21252Y-13680D01*
X21223Y-13690D01*
X21204Y-13709D01*
X21195Y-13728D01*
X21185Y-13766D01*
X21185Y-13795D01*
X21195Y-13833D01*
X21204Y-13852D01*
X21223Y-13871D01*
X21252Y-13880D01*
X21271Y-13880D01*
X21300Y-13871D01*
X21309Y-13861D01*
X21309Y-13795D01*
X21271Y-13795D01*
X21395Y-13880D02*
X21395Y-13680D01*
X21442Y-13680D01*
X21471Y-13690D01*
X21490Y-13709D01*
X21500Y-13728D01*
X21509Y-13766D01*
X21509Y-13795D01*
X21500Y-13833D01*
X21490Y-13852D01*
X21471Y-13871D01*
X21442Y-13880D01*
X21395Y-13880D01*
X21585Y-13871D02*
X21614Y-13880D01*
X21661Y-13880D01*
X21680Y-13871D01*
X21690Y-13861D01*
X21700Y-13842D01*
X21700Y-13823D01*
X21690Y-13804D01*
X21680Y-13795D01*
X21661Y-13785D01*
X21623Y-13776D01*
X21604Y-13766D01*
X21595Y-13757D01*
X21585Y-13738D01*
X21585Y-13719D01*
X21595Y-13700D01*
X21604Y-13690D01*
X21623Y-13680D01*
X21671Y-13680D01*
X21700Y-13690D01*
G54D20*
X21828Y-15289D02*
X21864Y-15301D01*
X21923Y-15301D01*
X21947Y-15289D01*
X21959Y-15277D01*
X21971Y-15253D01*
X21971Y-15229D01*
X21959Y-15205D01*
X21947Y-15194D01*
X21923Y-15182D01*
X21876Y-15170D01*
X21852Y-15158D01*
X21840Y-15146D01*
X21828Y-15122D01*
X21828Y-15098D01*
X21840Y-15075D01*
X21852Y-15063D01*
X21876Y-15051D01*
X21935Y-15051D01*
X21971Y-15063D01*
X20834Y-15301D02*
X20834Y-15051D01*
X20894Y-15051D01*
X20929Y-15063D01*
X20953Y-15086D01*
X20965Y-15110D01*
X20977Y-15158D01*
X20977Y-15194D01*
X20965Y-15241D01*
X20953Y-15265D01*
X20929Y-15289D01*
X20894Y-15301D01*
X20834Y-15301D01*
X19865Y-15063D02*
X19841Y-15051D01*
X19805Y-15051D01*
X19770Y-15063D01*
X19746Y-15086D01*
X19734Y-15110D01*
X19722Y-15158D01*
X19722Y-15194D01*
X19734Y-15241D01*
X19746Y-15265D01*
X19770Y-15289D01*
X19805Y-15301D01*
X19829Y-15301D01*
X19865Y-15289D01*
X19877Y-15277D01*
X19877Y-15194D01*
X19829Y-15194D01*
G54D15*
X12723Y-11502D02*
X12723Y-11002D01*
X12952Y-11502D01*
X12952Y-11002D01*
X13142Y-11240D02*
X13276Y-11240D01*
X13333Y-11502D02*
X13142Y-11502D01*
X13142Y-11002D01*
X13333Y-11002D01*
X13695Y-11002D02*
X13504Y-11002D01*
X13485Y-11240D01*
X13504Y-11216D01*
X13542Y-11192D01*
X13638Y-11192D01*
X13676Y-11216D01*
X13695Y-11240D01*
X13714Y-11288D01*
X13714Y-11407D01*
X13695Y-11454D01*
X13676Y-11478D01*
X13638Y-11502D01*
X13542Y-11502D01*
X13504Y-11478D01*
X13485Y-11454D01*
X14076Y-11002D02*
X13885Y-11002D01*
X13866Y-11240D01*
X13885Y-11216D01*
X13923Y-11192D01*
X14019Y-11192D01*
X14057Y-11216D01*
X14076Y-11240D01*
X14095Y-11288D01*
X14095Y-11407D01*
X14076Y-11454D01*
X14057Y-11478D01*
X14019Y-11502D01*
X13923Y-11502D01*
X13885Y-11478D01*
X13866Y-11454D01*
X14457Y-11002D02*
X14266Y-11002D01*
X14247Y-11240D01*
X14266Y-11216D01*
X14304Y-11192D01*
X14400Y-11192D01*
X14438Y-11216D01*
X14457Y-11240D01*
X14476Y-11288D01*
X14476Y-11407D01*
X14457Y-11454D01*
X14438Y-11478D01*
X14400Y-11502D01*
X14304Y-11502D01*
X14266Y-11478D01*
X14247Y-11454D01*
X14647Y-11502D02*
X14647Y-11002D01*
X14876Y-11502D01*
X14876Y-11002D01*
X21804Y-10061D02*
X21804Y-9661D01*
X21900Y-9661D01*
X21957Y-9680D01*
X21995Y-9719D01*
X22014Y-9757D01*
X22033Y-9833D01*
X22033Y-9890D01*
X22014Y-9966D01*
X21995Y-10004D01*
X21957Y-10042D01*
X21900Y-10061D01*
X21804Y-10061D01*
X22185Y-9700D02*
X22204Y-9680D01*
X22242Y-9661D01*
X22338Y-9661D01*
X22376Y-9680D01*
X22395Y-9700D01*
X22414Y-9738D01*
X22414Y-9776D01*
X22395Y-9833D01*
X22166Y-10061D01*
X22414Y-10061D01*
X21804Y-11161D02*
X21804Y-10761D01*
X21900Y-10761D01*
X21957Y-10780D01*
X21995Y-10819D01*
X22014Y-10857D01*
X22033Y-10933D01*
X22033Y-10990D01*
X22014Y-11066D01*
X21995Y-11104D01*
X21957Y-11142D01*
X21900Y-11161D01*
X21804Y-11161D01*
X22166Y-10761D02*
X22414Y-10761D01*
X22280Y-10914D01*
X22338Y-10914D01*
X22376Y-10933D01*
X22395Y-10952D01*
X22414Y-10990D01*
X22414Y-11085D01*
X22395Y-11123D01*
X22376Y-11142D01*
X22338Y-11161D01*
X22223Y-11161D01*
X22185Y-11142D01*
X22166Y-11123D01*
X10933Y-14823D02*
X10914Y-14842D01*
X10857Y-14861D01*
X10819Y-14861D01*
X10761Y-14842D01*
X10723Y-14804D01*
X10704Y-14766D01*
X10685Y-14690D01*
X10685Y-14633D01*
X10704Y-14557D01*
X10723Y-14519D01*
X10761Y-14480D01*
X10819Y-14461D01*
X10857Y-14461D01*
X10914Y-14480D01*
X10933Y-14500D01*
X11314Y-14861D02*
X11085Y-14861D01*
X11200Y-14861D02*
X11200Y-14461D01*
X11161Y-14519D01*
X11123Y-14557D01*
X11085Y-14576D01*
X11961Y-14157D02*
X11961Y-14385D01*
X11961Y-14271D02*
X11561Y-14271D01*
X11619Y-14309D01*
X11657Y-14347D01*
X11676Y-14385D01*
X11561Y-13909D02*
X11561Y-13871D01*
X11580Y-13833D01*
X11600Y-13814D01*
X11638Y-13795D01*
X11714Y-13776D01*
X11809Y-13776D01*
X11885Y-13795D01*
X11923Y-13814D01*
X11942Y-13833D01*
X11961Y-13871D01*
X11961Y-13909D01*
X11942Y-13947D01*
X11923Y-13966D01*
X11885Y-13985D01*
X11809Y-14004D01*
X11714Y-14004D01*
X11638Y-13985D01*
X11600Y-13966D01*
X11580Y-13947D01*
X11561Y-13909D01*
X11695Y-13604D02*
X12095Y-13604D01*
X11714Y-13604D02*
X11695Y-13566D01*
X11695Y-13490D01*
X11714Y-13452D01*
X11733Y-13433D01*
X11771Y-13414D01*
X11885Y-13414D01*
X11923Y-13433D01*
X11942Y-13452D01*
X11961Y-13490D01*
X11961Y-13566D01*
X11942Y-13604D01*
X19433Y-9223D02*
X19414Y-9242D01*
X19357Y-9261D01*
X19319Y-9261D01*
X19261Y-9242D01*
X19223Y-9204D01*
X19204Y-9166D01*
X19185Y-9090D01*
X19185Y-9033D01*
X19204Y-8957D01*
X19223Y-8919D01*
X19261Y-8880D01*
X19319Y-8861D01*
X19357Y-8861D01*
X19414Y-8880D01*
X19433Y-8900D01*
X19566Y-8861D02*
X19814Y-8861D01*
X19680Y-9014D01*
X19738Y-9014D01*
X19776Y-9033D01*
X19795Y-9052D01*
X19814Y-9090D01*
X19814Y-9185D01*
X19795Y-9223D01*
X19776Y-9242D01*
X19738Y-9261D01*
X19623Y-9261D01*
X19585Y-9242D01*
X19566Y-9223D01*
X18761Y-10647D02*
X18761Y-10876D01*
X18761Y-10761D02*
X18361Y-10761D01*
X18419Y-10799D01*
X18457Y-10838D01*
X18476Y-10876D01*
X18361Y-10399D02*
X18361Y-10361D01*
X18380Y-10323D01*
X18400Y-10304D01*
X18438Y-10285D01*
X18514Y-10266D01*
X18609Y-10266D01*
X18685Y-10285D01*
X18723Y-10304D01*
X18742Y-10323D01*
X18761Y-10361D01*
X18761Y-10399D01*
X18742Y-10438D01*
X18723Y-10457D01*
X18685Y-10476D01*
X18609Y-10495D01*
X18514Y-10495D01*
X18438Y-10476D01*
X18400Y-10457D01*
X18380Y-10438D01*
X18361Y-10399D01*
X18361Y-10019D02*
X18361Y-9980D01*
X18380Y-9942D01*
X18400Y-9923D01*
X18438Y-9904D01*
X18514Y-9885D01*
X18609Y-9885D01*
X18685Y-9904D01*
X18723Y-9923D01*
X18742Y-9942D01*
X18761Y-9980D01*
X18761Y-10019D01*
X18742Y-10057D01*
X18723Y-10076D01*
X18685Y-10095D01*
X18609Y-10114D01*
X18514Y-10114D01*
X18438Y-10095D01*
X18400Y-10076D01*
X18380Y-10057D01*
X18361Y-10019D01*
X18495Y-9714D02*
X18761Y-9714D01*
X18533Y-9714D02*
X18514Y-9695D01*
X18495Y-9657D01*
X18495Y-9600D01*
X18514Y-9561D01*
X18552Y-9542D01*
X18761Y-9542D01*
X13402Y-14822D02*
X13116Y-14822D01*
X13259Y-14822D02*
X13259Y-14272D01*
X13211Y-14351D01*
X13164Y-14403D01*
X13116Y-14429D01*
X13711Y-14272D02*
X13759Y-14272D01*
X13807Y-14298D01*
X13830Y-14325D01*
X13854Y-14377D01*
X13878Y-14482D01*
X13878Y-14613D01*
X13854Y-14717D01*
X13830Y-14770D01*
X13807Y-14796D01*
X13759Y-14822D01*
X13711Y-14822D01*
X13664Y-14796D01*
X13640Y-14770D01*
X13616Y-14717D01*
X13592Y-14613D01*
X13592Y-14482D01*
X13616Y-14377D01*
X13640Y-14325D01*
X13664Y-14298D01*
X13711Y-14272D01*
X14092Y-14822D02*
X14092Y-14272D01*
X14140Y-14613D02*
X14283Y-14822D01*
X14283Y-14455D02*
X14092Y-14665D01*
X17461Y-15095D02*
X17061Y-15095D01*
X17061Y-14999D01*
X17080Y-14942D01*
X17119Y-14904D01*
X17157Y-14885D01*
X17233Y-14866D01*
X17290Y-14866D01*
X17366Y-14885D01*
X17404Y-14904D01*
X17442Y-14942D01*
X17461Y-14999D01*
X17461Y-15095D01*
X17195Y-14523D02*
X17461Y-14523D01*
X17042Y-14619D02*
X17328Y-14714D01*
X17328Y-14466D01*
X14216Y-16622D02*
X14050Y-16360D01*
X13930Y-16622D02*
X13930Y-16072D01*
X14121Y-16072D01*
X14169Y-16098D01*
X14192Y-16125D01*
X14216Y-16177D01*
X14216Y-16255D01*
X14192Y-16308D01*
X14169Y-16334D01*
X14121Y-16360D01*
X13930Y-16360D01*
X14645Y-16255D02*
X14645Y-16622D01*
X14526Y-16046D02*
X14407Y-16439D01*
X14716Y-16439D01*
X13076Y-16072D02*
X13123Y-16072D01*
X13171Y-16098D01*
X13195Y-16125D01*
X13219Y-16177D01*
X13242Y-16282D01*
X13242Y-16413D01*
X13219Y-16517D01*
X13195Y-16570D01*
X13171Y-16596D01*
X13123Y-16622D01*
X13076Y-16622D01*
X13028Y-16596D01*
X13004Y-16570D01*
X12980Y-16517D01*
X12957Y-16413D01*
X12957Y-16282D01*
X12980Y-16177D01*
X13004Y-16125D01*
X13028Y-16098D01*
X13076Y-16072D01*
X8533Y-10823D02*
X8514Y-10842D01*
X8457Y-10861D01*
X8419Y-10861D01*
X8361Y-10842D01*
X8323Y-10804D01*
X8304Y-10766D01*
X8285Y-10690D01*
X8285Y-10633D01*
X8304Y-10557D01*
X8323Y-10519D01*
X8361Y-10480D01*
X8419Y-10461D01*
X8457Y-10461D01*
X8514Y-10480D01*
X8533Y-10500D01*
X8876Y-10595D02*
X8876Y-10861D01*
X8780Y-10442D02*
X8685Y-10728D01*
X8933Y-10728D01*
X11261Y-11447D02*
X11261Y-11676D01*
X11261Y-11561D02*
X10861Y-11561D01*
X10919Y-11599D01*
X10957Y-11638D01*
X10976Y-11676D01*
X10861Y-11199D02*
X10861Y-11161D01*
X10880Y-11123D01*
X10900Y-11104D01*
X10938Y-11085D01*
X11014Y-11066D01*
X11109Y-11066D01*
X11185Y-11085D01*
X11223Y-11104D01*
X11242Y-11123D01*
X11261Y-11161D01*
X11261Y-11199D01*
X11242Y-11238D01*
X11223Y-11257D01*
X11185Y-11276D01*
X11109Y-11295D01*
X11014Y-11295D01*
X10938Y-11276D01*
X10900Y-11257D01*
X10880Y-11238D01*
X10861Y-11199D01*
X10861Y-10819D02*
X10861Y-10780D01*
X10880Y-10742D01*
X10900Y-10723D01*
X10938Y-10704D01*
X11014Y-10685D01*
X11109Y-10685D01*
X11185Y-10704D01*
X11223Y-10723D01*
X11242Y-10742D01*
X11261Y-10780D01*
X11261Y-10819D01*
X11242Y-10857D01*
X11223Y-10876D01*
X11185Y-10895D01*
X11109Y-10914D01*
X11014Y-10914D01*
X10938Y-10895D01*
X10900Y-10876D01*
X10880Y-10857D01*
X10861Y-10819D01*
X10995Y-10514D02*
X11261Y-10514D01*
X11033Y-10514D02*
X11014Y-10495D01*
X10995Y-10457D01*
X10995Y-10400D01*
X11014Y-10361D01*
X11052Y-10342D01*
X11261Y-10342D01*
G54D17*
X8521Y-13521D02*
X8221Y-13521D01*
X8521Y-13350D02*
X8350Y-13478D01*
X8221Y-13350D02*
X8392Y-13521D01*
X8521Y-13064D02*
X8521Y-13235D01*
X8521Y-13150D02*
X8221Y-13150D01*
X8264Y-13178D01*
X8292Y-13207D01*
X8307Y-13235D01*
G54D15*
X16541Y-10739D02*
X16525Y-10760D01*
X16475Y-10782D01*
X16441Y-10782D01*
X16391Y-10760D01*
X16358Y-10717D01*
X16341Y-10675D01*
X16325Y-10589D01*
X16325Y-10525D01*
X16341Y-10439D01*
X16358Y-10396D01*
X16391Y-10353D01*
X16441Y-10332D01*
X16475Y-10332D01*
X16525Y-10353D01*
X16541Y-10375D01*
X16675Y-10375D02*
X16691Y-10353D01*
X16725Y-10332D01*
X16808Y-10332D01*
X16841Y-10353D01*
X16858Y-10375D01*
X16875Y-10417D01*
X16875Y-10460D01*
X16858Y-10525D01*
X16658Y-10782D01*
X16875Y-10782D01*
X16541Y-11482D02*
X16341Y-11482D01*
X16441Y-11482D02*
X16441Y-11032D01*
X16408Y-11096D01*
X16375Y-11139D01*
X16341Y-11160D01*
X16841Y-11182D02*
X16841Y-11482D01*
X16691Y-11182D02*
X16691Y-11417D01*
X16708Y-11460D01*
X16741Y-11482D01*
X16791Y-11482D01*
X16825Y-11460D01*
X16841Y-11439D01*
G54D21*
X16610Y-12071D02*
X16610Y-11728D01*
X16782Y-11900D02*
X16439Y-11900D01*
G54D14*
G54D15*
X23404Y-16661D02*
X23404Y-16261D01*
X23633Y-16661D02*
X23461Y-16433D01*
X23633Y-16261D02*
X23404Y-16490D01*
X23785Y-16300D02*
X23804Y-16280D01*
X23842Y-16261D01*
X23938Y-16261D01*
X23976Y-16280D01*
X23995Y-16300D01*
X24014Y-16338D01*
X24014Y-16376D01*
X23995Y-16433D01*
X23766Y-16661D01*
X24014Y-16661D01*
M02*
