M48
INCH,TZ
T1C0.032
T2C0.040
T3C0.045
T4C0.120
%
G90
G05
T1
X009200Y-011400
X010200Y-011400
X010900Y-012800
X010900Y-013800
X012300Y-009800
X012300Y-012800
X012300Y-014400
X013300Y-009800
X013300Y-012800
X014300Y-009800
X014300Y-012800
X015300Y-009800
X015300Y-012800
X015300Y-014400
X016200Y-015300
X016200Y-016300
X017300Y-013300
X017300Y-016300
X017400Y-010800
X017400Y-011800
X019400Y-009900
X019400Y-010900
X020600Y-009900
X020600Y-011000
X023600Y-009900
X023600Y-011000
X025200Y-009600
X025200Y-010600
X025200Y-011600
X025200Y-012600
X025200Y-013600
T2
X009200Y-012800
X009200Y-013800
X018800Y-016300
X019800Y-016300
X020800Y-016300
X021800Y-016300
T3
X012400Y-016300
X013400Y-016300
X014400Y-016300
X019800Y-012500
X019800Y-014500
X020800Y-012500
X020800Y-014500
X021800Y-012500
X021800Y-014500
T4
X009700Y-009700
X009700Y-015700
X025600Y-015700
T0
M30
